<?xml version="1.0" encoding="UTF-8"?>
<svg xmlns="http://www.w3.org/2000/svg" version="1.1" xmlns:xlink="http://www.w3.org/1999/xlink" viewBox="0 0 288 28">
  <!-- Generator: Adobe Illustrator 29.8.3, SVG Export Plug-In . SVG Version: 2.1.1 Build 3)  -->
  <defs>
    <style>
      .st0 {
        fill: #181818;
      }

      .st1 {
        fill: #313131;
      }

      .st2 {
        fill: #252525;
      }

      .st3 {
        fill: #2c2c2c;
      }

      .st4 {
        fill: #2a2a2a;
      }

      .st5 {
        fill: #3e3e3e;
      }

      .st6 {
        fill: #121212;
      }

      .st7 {
        fill: #272727;
      }

      .st8 {
        fill: #3f3f3f;
      }

      .st9 {
        fill: #0c0c0c;
      }

      .st10 {
        fill: #020202;
      }

      .st11 {
        fill: #2d2d2d;
      }

      .st12 {
        fill: #fff;
      }

      .st13 {
        fill: #383838;
      }

      .st14 {
        fill: #131313;
      }

      .st15 {
        fill: #3c3c3c;
      }

      .st16 {
        fill: url(#linear-gradient);
      }

      .st16, .st17, .st18 {
        isolation: isolate;
      }

      .st16, .st18 {
        mix-blend-mode: soft-light;
      }

      .st19 {
        fill: #090909;
      }

      .st20 {
        fill: #262626;
      }

      .st21 {
        fill: none;
      }

      .st22 {
        fill: #303030;
      }

      .st23 {
        fill: #1c1c1c;
      }

      .st24 {
        fill: #2f2f2f;
      }

      .st25 {
        clip-path: url(#clippath-1);
      }

      .st26 {
        fill: #3b3b3b;
      }

      .st27 {
        fill: #363636;
      }

      .st28 {
        fill: #282828;
      }

      .st29 {
        fill: #3a3a3a;
      }

      .st30 {
        fill: #373737;
      }

      .st31 {
        fill: #212121;
      }

      .st32 {
        fill: #2b2b2b;
      }

      .st33 {
        fill: #030303;
      }

      .st34 {
        fill: #0d0d0d;
      }

      .st35 {
        fill: #333;
      }

      .st36 {
        fill: #1a1a1a;
      }

      .st37 {
        fill: #0e0e0e;
      }

      .st38 {
        fill: #1b1b1b;
      }

      .st39 {
        fill: #0b0b0b;
      }

      .st40 {
        mix-blend-mode: screen;
        opacity: .05;
      }

      .st41 {
        fill: #353535;
      }

      .st42 {
        fill: #292929;
      }

      .st43 {
        fill: #0a0a0a;
      }

      .st44 {
        fill: #151515;
      }

      .st18 {
        fill: url(#linear-gradient1);
        opacity: .5;
      }

      .st45 {
        fill: #3d3d3d;
      }

      .st46 {
        fill: #070707;
      }

      .st47 {
        clip-path: url(#clippath);
      }

      .st48 {
        fill: #343434;
      }

      .st49 {
        fill: #101010;
      }

      .st50 {
        fill: #323232;
      }

      .st51 {
        fill: #2e2e2e;
      }
    </style>
    <clipPath id="clippath">
      <rect class="st21" width="288" height="28"/>
    </clipPath>
    <clipPath id="clippath-1">
      <rect class="st21" y="-16.12" width="288" height="46.44"/>
    </clipPath>
    <linearGradient id="linear-gradient" x1="-.25" y1="32.3" x2="286.46" y2="109.13" gradientTransform="translate(0 29.28) scale(1 -1)" gradientUnits="userSpaceOnUse">
      <stop offset=".21" stop-color="#000"/>
      <stop offset=".8" stop-color="#333"/>
    </linearGradient>
    <linearGradient id="linear-gradient1" x1="-.25" y1="32.3" x2="286.46" y2="109.13" gradientTransform="translate(0 29.28) scale(1 -1)" gradientUnits="userSpaceOnUse">
      <stop offset="0" stop-color="#000"/>
      <stop offset=".04" stop-color="#111"/>
      <stop offset=".11" stop-color="#272727"/>
      <stop offset=".19" stop-color="#383838"/>
      <stop offset=".28" stop-color="#444"/>
      <stop offset=".42" stop-color="#4b4b4b"/>
      <stop offset=".8" stop-color="#4d4d4d"/>
    </linearGradient>
  </defs>
  <g class="st17">
    <g id="Layer_1">
      <g class="st47">
        <g>
          <g class="st25">
            <g>
              <rect y="0" width="288" height="28"/>
              <g>
                <g>
                  <polygon points="13.71 -6.05 0 -13.97 0 1.87 13.71 -6.05"/>
                  <polygon class="st6" points="27.43 -6.05 13.71 -13.97 13.71 1.87 27.43 -6.05"/>
                  <polygon points="41.14 -6.05 27.43 -13.97 27.43 1.87 41.14 -6.05"/>
                  <polygon class="st14" points="54.86 -6.05 41.14 -13.97 41.14 1.87 54.86 -6.05"/>
                  <polygon class="st46" points="68.57 -6.05 54.86 -13.97 54.86 1.87 68.57 -6.05"/>
                  <polygon class="st31" points="82.29 -6.05 68.57 -13.97 68.57 1.87 82.29 -6.05"/>
                  <polygon class="st49" points="96 -6.05 82.29 -13.97 82.29 1.87 96 -6.05"/>
                  <polygon points="109.71 -6.05 96 -13.97 96 1.87 109.71 -6.05"/>
                  <polygon class="st46" points="123.43 -6.05 109.71 -13.97 109.71 1.87 123.43 -6.05"/>
                  <polygon class="st2" points="137.14 -6.05 123.43 -13.97 123.43 1.87 137.14 -6.05"/>
                  <polygon class="st36" points="150.86 -6.05 137.14 -13.97 137.14 1.87 150.86 -6.05"/>
                  <polygon class="st46" points="164.57 -6.05 150.86 -13.97 150.86 1.87 164.57 -6.05"/>
                  <polygon class="st44" points="178.29 -6.05 164.57 -13.97 164.57 1.87 178.29 -6.05"/>
                  <polygon class="st2" points="192 -6.05 178.29 -13.97 178.29 1.87 192 -6.05"/>
                  <polygon points="205.71 -6.05 192 -13.97 192 1.87 205.71 -6.05"/>
                  <polygon points="219.43 -6.05 205.71 -13.97 205.71 1.87 219.43 -6.05"/>
                  <polygon class="st10" points="233.14 -6.05 219.43 -13.97 219.43 1.87 233.14 -6.05"/>
                  <polygon points="246.86 -6.05 233.14 -13.97 233.14 1.87 246.86 -6.05"/>
                  <polygon points="260.57 -6.05 246.86 -13.97 246.86 1.87 260.57 -6.05"/>
                  <polygon points="274.29 -6.05 260.57 -13.97 260.57 1.87 274.29 -6.05"/>
                  <polygon points="288 -6.05 274.29 -13.97 274.29 1.87 288 -6.05"/>
                  <polygon points="13.71 9.78 0 1.87 0 17.7 13.71 9.78"/>
                  <polygon points="27.43 9.78 13.71 1.87 13.71 17.7 27.43 9.78"/>
                  <polygon points="41.14 9.78 27.43 1.87 27.43 17.7 41.14 9.78"/>
                  <polygon class="st49" points="54.86 9.78 41.14 1.87 41.14 17.7 54.86 9.78"/>
                  <polygon class="st7" points="68.57 9.78 54.86 1.87 54.86 17.7 68.57 9.78"/>
                  <polygon class="st49" points="82.29 9.78 68.57 1.87 68.57 17.7 82.29 9.78"/>
                  <polygon class="st33" points="96 9.78 82.29 1.87 82.29 17.7 96 9.78"/>
                  <polygon class="st19" points="109.71 9.78 96 1.87 96 17.7 109.71 9.78"/>
                  <polygon class="st24" points="123.43 9.78 109.71 1.87 109.71 17.7 123.43 9.78"/>
                  <polygon points="137.14 9.78 123.43 1.87 123.43 17.7 137.14 9.78"/>
                  <polygon points="150.86 9.78 137.14 1.87 137.14 17.7 150.86 9.78"/>
                  <polygon class="st9" points="164.57 9.78 150.86 1.87 150.86 17.7 164.57 9.78"/>
                  <polygon points="178.29 9.78 164.57 1.87 164.57 17.7 178.29 9.78"/>
                  <polygon class="st43" points="192 9.78 178.29 1.87 178.29 17.7 192 9.78"/>
                  <polygon class="st9" points="205.71 9.78 192 1.87 192 17.7 205.71 9.78"/>
                  <polygon points="219.43 9.78 205.71 1.87 205.71 17.7 219.43 9.78"/>
                  <polygon class="st4" points="233.14 9.78 219.43 1.87 219.43 17.7 233.14 9.78"/>
                  <polygon class="st9" points="246.86 9.78 233.14 1.87 233.14 17.7 246.86 9.78"/>
                  <polygon class="st49" points="260.57 9.78 246.86 1.87 246.86 17.7 260.57 9.78"/>
                  <polygon class="st23" points="274.29 9.78 260.57 1.87 260.57 17.7 274.29 9.78"/>
                  <polygon points="288 9.78 274.29 1.87 274.29 17.7 288 9.78"/>
                  <polygon class="st0" points="13.71 25.62 0 17.7 0 33.54 13.71 25.62"/>
                  <polygon points="27.43 25.62 13.71 17.7 13.71 33.54 27.43 25.62"/>
                  <polygon class="st38" points="41.14 25.62 27.43 17.7 27.43 33.54 41.14 25.62"/>
                  <polygon class="st9" points="54.86 25.62 41.14 17.7 41.14 33.54 54.86 25.62"/>
                  <polygon points="68.57 25.62 54.86 17.7 54.86 33.54 68.57 25.62"/>
                  <polygon class="st23" points="82.29 25.62 68.57 17.7 68.57 33.54 82.29 25.62"/>
                  <polygon class="st10" points="96 25.62 82.29 17.7 82.29 33.54 96 25.62"/>
                  <polygon class="st33" points="109.71 25.62 96 17.7 96 33.54 109.71 25.62"/>
                  <polygon points="123.43 25.62 109.71 17.7 109.71 33.54 123.43 25.62"/>
                  <polygon class="st8" points="137.14 25.62 123.43 17.7 123.43 33.54 137.14 25.62"/>
                  <polygon class="st9" points="150.86 25.62 137.14 17.7 137.14 33.54 150.86 25.62"/>
                  <polygon class="st14" points="164.57 25.62 150.86 17.7 150.86 33.54 164.57 25.62"/>
                  <polygon class="st34" points="178.29 25.62 164.57 17.7 164.57 33.54 178.29 25.62"/>
                  <polygon class="st37" points="192 25.62 178.29 17.7 178.29 33.54 192 25.62"/>
                  <polygon points="205.71 25.62 192 17.7 192 33.54 205.71 25.62"/>
                  <polygon class="st39" points="219.43 25.62 205.71 17.7 205.71 33.54 219.43 25.62"/>
                  <polygon points="233.14 25.62 219.43 17.7 219.43 33.54 233.14 25.62"/>
                  <polygon class="st20" points="246.86 25.62 233.14 17.7 233.14 33.54 246.86 25.62"/>
                  <polygon points="260.57 25.62 246.86 17.7 246.86 33.54 260.57 25.62"/>
                  <polygon points="274.29 25.62 260.57 17.7 260.57 33.54 274.29 25.62"/>
                  <polygon class="st49" points="288 25.62 274.29 17.7 274.29 33.54 288 25.62"/>
                </g>
                <g class="st40">
                  <g>
                    <polygon class="st12" points="13.71 -6.05 0 -13.97 0 1.87 13.71 -6.05"/>
                    <polygon class="st12" points="27.43 -6.05 13.71 -13.97 13.71 1.87 27.43 -6.05"/>
                    <polygon class="st12" points="41.14 -6.05 27.43 -13.97 27.43 1.87 41.14 -6.05"/>
                    <polygon class="st12" points="54.86 -6.05 41.14 -13.97 41.14 1.87 54.86 -6.05"/>
                    <polygon class="st12" points="68.57 -6.05 54.86 -13.97 54.86 1.87 68.57 -6.05"/>
                    <polygon class="st12" points="82.29 -6.05 68.57 -13.97 68.57 1.87 82.29 -6.05"/>
                    <polygon class="st12" points="96 -6.05 82.29 -13.97 82.29 1.87 96 -6.05"/>
                    <polygon class="st12" points="109.71 -6.05 96 -13.97 96 1.87 109.71 -6.05"/>
                    <polygon class="st12" points="123.43 -6.05 109.71 -13.97 109.71 1.87 123.43 -6.05"/>
                    <polygon class="st12" points="137.14 -6.05 123.43 -13.97 123.43 1.87 137.14 -6.05"/>
                    <polygon class="st12" points="150.86 -6.05 137.14 -13.97 137.14 1.87 150.86 -6.05"/>
                    <polygon class="st12" points="164.57 -6.05 150.86 -13.97 150.86 1.87 164.57 -6.05"/>
                    <polygon class="st12" points="178.29 -6.05 164.57 -13.97 164.57 1.87 178.29 -6.05"/>
                    <polygon class="st12" points="192 -6.05 178.29 -13.97 178.29 1.87 192 -6.05"/>
                    <polygon class="st12" points="205.71 -6.05 192 -13.97 192 1.87 205.71 -6.05"/>
                    <polygon class="st12" points="219.43 -6.05 205.71 -13.97 205.71 1.87 219.43 -6.05"/>
                    <polygon class="st12" points="233.14 -6.05 219.43 -13.97 219.43 1.87 233.14 -6.05"/>
                    <polygon class="st12" points="246.86 -6.05 233.14 -13.97 233.14 1.87 246.86 -6.05"/>
                    <polygon class="st12" points="260.57 -6.05 246.86 -13.97 246.86 1.87 260.57 -6.05"/>
                    <polygon class="st12" points="274.29 -6.05 260.57 -13.97 260.57 1.87 274.29 -6.05"/>
                    <polygon class="st12" points="288 -6.05 274.29 -13.97 274.29 1.87 288 -6.05"/>
                    <polygon class="st12" points="13.71 9.78 0 1.87 0 17.7 13.71 9.78"/>
                    <polygon class="st12" points="27.43 9.78 13.71 1.87 13.71 17.7 27.43 9.78"/>
                    <polygon class="st12" points="41.14 9.78 27.43 1.87 27.43 17.7 41.14 9.78"/>
                    <polygon class="st12" points="54.86 9.78 41.14 1.87 41.14 17.7 54.86 9.78"/>
                    <polygon class="st12" points="68.57 9.78 54.86 1.87 54.86 17.7 68.57 9.78"/>
                    <polygon class="st12" points="82.29 9.78 68.57 1.87 68.57 17.7 82.29 9.78"/>
                    <polygon class="st12" points="96 9.78 82.29 1.87 82.29 17.7 96 9.78"/>
                    <polygon class="st12" points="109.71 9.78 96 1.87 96 17.7 109.71 9.78"/>
                    <polygon class="st12" points="123.43 9.78 109.71 1.87 109.71 17.7 123.43 9.78"/>
                    <polygon class="st12" points="137.14 9.78 123.43 1.87 123.43 17.7 137.14 9.78"/>
                    <polygon class="st12" points="150.86 9.78 137.14 1.87 137.14 17.7 150.86 9.78"/>
                    <polygon class="st12" points="164.57 9.78 150.86 1.87 150.86 17.7 164.57 9.78"/>
                    <polygon class="st12" points="178.29 9.78 164.57 1.87 164.57 17.7 178.29 9.78"/>
                    <polygon class="st12" points="192 9.78 178.29 1.87 178.29 17.7 192 9.78"/>
                    <polygon class="st12" points="205.71 9.78 192 1.87 192 17.7 205.71 9.78"/>
                    <polygon class="st12" points="219.43 9.78 205.71 1.87 205.71 17.7 219.43 9.78"/>
                    <polygon class="st12" points="233.14 9.78 219.43 1.87 219.43 17.7 233.14 9.78"/>
                    <polygon class="st12" points="246.86 9.78 233.14 1.87 233.14 17.7 246.86 9.78"/>
                    <polygon class="st12" points="260.57 9.78 246.86 1.87 246.86 17.7 260.57 9.78"/>
                    <polygon class="st12" points="274.29 9.78 260.57 1.87 260.57 17.7 274.29 9.78"/>
                    <polygon class="st12" points="288 9.78 274.29 1.87 274.29 17.7 288 9.78"/>
                    <polygon class="st12" points="13.71 25.62 0 17.7 0 33.54 13.71 25.62"/>
                    <polygon class="st12" points="27.43 25.62 13.71 17.7 13.71 33.54 27.43 25.62"/>
                    <polygon class="st12" points="41.14 25.62 27.43 17.7 27.43 33.54 41.14 25.62"/>
                    <polygon class="st12" points="54.86 25.62 41.14 17.7 41.14 33.54 54.86 25.62"/>
                    <polygon class="st12" points="68.57 25.62 54.86 17.7 54.86 33.54 68.57 25.62"/>
                    <polygon class="st12" points="82.29 25.62 68.57 17.7 68.57 33.54 82.29 25.62"/>
                    <polygon class="st12" points="96 25.62 82.29 17.7 82.29 33.54 96 25.62"/>
                    <polygon class="st12" points="109.71 25.62 96 17.7 96 33.54 109.71 25.62"/>
                    <polygon class="st12" points="123.43 25.62 109.71 17.7 109.71 33.54 123.43 25.62"/>
                    <polygon class="st12" points="137.14 25.62 123.43 17.7 123.43 33.54 137.14 25.62"/>
                    <polygon class="st12" points="150.86 25.62 137.14 17.7 137.14 33.54 150.86 25.62"/>
                    <polygon class="st12" points="164.57 25.62 150.86 17.7 150.86 33.54 164.57 25.62"/>
                    <polygon class="st12" points="178.29 25.62 164.57 17.7 164.57 33.54 178.29 25.62"/>
                    <polygon class="st12" points="192 25.62 178.29 17.7 178.29 33.54 192 25.62"/>
                    <polygon class="st12" points="205.71 25.62 192 17.7 192 33.54 205.71 25.62"/>
                    <polygon class="st12" points="219.43 25.62 205.71 17.7 205.71 33.54 219.43 25.62"/>
                    <polygon class="st12" points="233.14 25.62 219.43 17.7 219.43 33.54 233.14 25.62"/>
                    <polygon class="st12" points="246.86 25.62 233.14 17.7 233.14 33.54 246.86 25.62"/>
                    <polygon class="st12" points="260.57 25.62 246.86 17.7 246.86 33.54 260.57 25.62"/>
                    <polygon class="st12" points="274.29 25.62 260.57 17.7 260.57 33.54 274.29 25.62"/>
                    <polygon class="st12" points="288 25.62 274.29 17.7 274.29 33.54 288 25.62"/>
                  </g>
                </g>
              </g>
              <g>
                <polygon points="272.41 2.94 286.13 -4.97 286.13 10.86 272.41 2.94"/>
                <polygon points="258.7 2.94 272.41 -4.97 272.41 10.86 258.7 2.94"/>
                <polygon points="244.98 2.94 258.7 -4.97 258.7 10.86 244.98 2.94"/>
                <polygon points="231.27 2.94 244.98 -4.97 244.98 10.86 231.27 2.94"/>
                <polygon points="217.55 2.94 231.27 -4.97 231.27 10.86 217.55 2.94"/>
                <polygon points="203.84 2.94 217.55 -4.97 217.55 10.86 203.84 2.94"/>
                <polygon points="190.13 2.94 203.84 -4.97 203.84 10.86 190.13 2.94"/>
                <polygon points="176.41 2.94 190.13 -4.97 190.13 10.86 176.41 2.94"/>
                <polygon points="162.7 2.94 176.41 -4.97 176.41 10.86 162.7 2.94"/>
                <polygon points="148.98 2.94 162.7 -4.97 162.7 10.86 148.98 2.94"/>
                <polygon points="135.27 2.94 148.98 -4.97 148.98 10.86 135.27 2.94"/>
                <polygon points="121.55 2.94 135.27 -4.97 135.27 10.86 121.55 2.94"/>
                <polygon points="107.84 2.94 121.55 -4.97 121.55 10.86 107.84 2.94"/>
                <polygon points="94.13 2.94 107.84 -4.97 107.84 10.86 94.13 2.94"/>
                <polygon points="80.41 2.94 94.13 -4.97 94.13 10.86 80.41 2.94"/>
                <polygon points="66.7 2.94 80.41 -4.97 80.41 10.86 66.7 2.94"/>
                <polygon points="52.98 2.94 66.7 -4.97 66.7 10.86 52.98 2.94"/>
                <polygon points="39.27 2.94 52.98 -4.97 52.98 10.86 39.27 2.94"/>
                <polygon points="25.55 2.94 39.27 -4.97 39.27 10.86 25.55 2.94"/>
                <polygon points="11.84 2.94 25.55 -4.97 25.55 10.86 11.84 2.94"/>
                <polygon points="-1.87 2.94 11.84 -4.97 11.84 10.86 -1.87 2.94"/>
                <polygon points="272.41 18.78 286.13 10.86 286.13 26.7 272.41 18.78"/>
                <polygon points="258.7 18.78 272.41 10.86 272.41 26.7 258.7 18.78"/>
                <polygon points="244.98 18.78 258.7 10.86 258.7 26.7 244.98 18.78"/>
                <polygon points="231.27 18.78 244.98 10.86 244.98 26.7 231.27 18.78"/>
                <polygon points="217.55 18.78 231.27 10.86 231.27 26.7 217.55 18.78"/>
                <polygon points="203.84 18.78 217.55 10.86 217.55 26.7 203.84 18.78"/>
                <polygon points="190.13 18.78 203.84 10.86 203.84 26.7 190.13 18.78"/>
                <polygon points="176.41 18.78 190.13 10.86 190.13 26.7 176.41 18.78"/>
                <polygon points="162.7 18.78 176.41 10.86 176.41 26.7 162.7 18.78"/>
                <polygon points="148.98 18.78 162.7 10.86 162.7 26.7 148.98 18.78"/>
                <polygon points="135.27 18.78 148.98 10.86 148.98 26.7 135.27 18.78"/>
                <polygon points="121.55 18.78 135.27 10.86 135.27 26.7 121.55 18.78"/>
                <polygon points="107.84 18.78 121.55 10.86 121.55 26.7 107.84 18.78"/>
                <polygon points="94.13 18.78 107.84 10.86 107.84 26.7 94.13 18.78"/>
                <polygon points="80.41 18.78 94.13 10.86 94.13 26.7 80.41 18.78"/>
                <polygon points="66.7 18.78 80.41 10.86 80.41 26.7 66.7 18.78"/>
                <polygon points="52.98 18.78 66.7 10.86 66.7 26.7 52.98 18.78"/>
                <polygon points="39.27 18.78 52.98 10.86 52.98 26.7 39.27 18.78"/>
                <polygon points="25.55 18.78 39.27 10.86 39.27 26.7 25.55 18.78"/>
                <polygon points="11.84 18.78 25.55 10.86 25.55 26.7 11.84 18.78"/>
                <polygon points="-1.87 18.78 11.84 10.86 11.84 26.7 -1.87 18.78"/>
                <polygon points="272.41 34.62 286.13 26.7 286.13 42.53 272.41 34.62"/>
                <polygon points="258.7 34.62 272.41 26.7 272.41 42.53 258.7 34.62"/>
                <polygon points="244.98 34.62 258.7 26.7 258.7 42.53 244.98 34.62"/>
                <polygon points="231.27 34.62 244.98 26.7 244.98 42.53 231.27 34.62"/>
                <polygon points="217.55 34.62 231.27 26.7 231.27 42.53 217.55 34.62"/>
                <polygon points="203.84 34.62 217.55 26.7 217.55 42.53 203.84 34.62"/>
                <polygon points="190.13 34.62 203.84 26.7 203.84 42.53 190.13 34.62"/>
                <polygon points="176.41 34.62 190.13 26.7 190.13 42.53 176.41 34.62"/>
                <polygon points="162.7 34.62 176.41 26.7 176.41 42.53 162.7 34.62"/>
                <polygon points="148.98 34.62 162.7 26.7 162.7 42.53 148.98 34.62"/>
                <polygon points="135.27 34.62 148.98 26.7 148.98 42.53 135.27 34.62"/>
                <polygon points="121.55 34.62 135.27 26.7 135.27 42.53 121.55 34.62"/>
                <polygon points="107.84 34.62 121.55 26.7 121.55 42.53 107.84 34.62"/>
                <polygon points="94.13 34.62 107.84 26.7 107.84 42.53 94.13 34.62"/>
                <polygon points="80.41 34.62 94.13 26.7 94.13 42.53 80.41 34.62"/>
                <polygon points="66.7 34.62 80.41 26.7 80.41 42.53 66.7 34.62"/>
                <polygon points="52.98 34.62 66.7 26.7 66.7 42.53 52.98 34.62"/>
                <polygon points="39.27 34.62 52.98 26.7 52.98 42.53 39.27 34.62"/>
                <polygon points="25.55 34.62 39.27 26.7 39.27 42.53 25.55 34.62"/>
                <polygon points="11.84 34.62 25.55 26.7 25.55 42.53 11.84 34.62"/>
                <polygon points="-1.87 34.62 11.84 26.7 11.84 42.53 -1.87 34.62"/>
              </g>
              <g>
                <polygon class="st29" points="274.29 4.07 288 -3.85 288 11.98 274.29 4.07"/>
                <polygon class="st22" points="260.57 4.07 274.29 -3.85 274.29 11.98 260.57 4.07"/>
                <polygon class="st29" points="246.86 4.07 260.57 -3.85 260.57 11.98 246.86 4.07"/>
                <polygon class="st29" points="233.14 4.07 246.86 -3.85 246.86 11.98 233.14 4.07"/>
                <polygon class="st48" points="219.43 4.07 233.14 -3.85 233.14 11.98 219.43 4.07"/>
                <polygon class="st3" points="205.71 4.07 219.43 -3.85 219.43 11.98 205.71 4.07"/>
                <polygon class="st27" points="192 4.07 205.71 -3.85 205.71 11.98 192 4.07"/>
                <polygon class="st3" points="178.29 4.07 192 -3.85 192 11.98 178.29 4.07"/>
                <polygon class="st8" points="164.57 4.07 178.29 -3.85 178.29 11.98 164.57 4.07"/>
                <polygon class="st48" points="150.86 4.07 164.57 -3.85 164.57 11.98 150.86 4.07"/>
                <polygon class="st30" points="137.14 4.07 150.86 -3.85 150.86 11.98 137.14 4.07"/>
                <polygon class="st30" points="123.43 4.07 137.14 -3.85 137.14 11.98 123.43 4.07"/>
                <polygon class="st13" points="109.71 4.07 123.43 -3.85 123.43 11.98 109.71 4.07"/>
                <polygon class="st51" points="96 4.07 109.71 -3.85 109.71 11.98 96 4.07"/>
                <polygon class="st51" points="82.29 4.07 96 -3.85 96 11.98 82.29 4.07"/>
                <polygon class="st50" points="68.57 4.07 82.29 -3.85 82.29 11.98 68.57 4.07"/>
                <polygon class="st11" points="54.86 4.07 68.57 -3.85 68.57 11.98 54.86 4.07"/>
                <polygon class="st22" points="41.14 4.07 54.86 -3.85 54.86 11.98 41.14 4.07"/>
                <polygon class="st8" points="27.43 4.07 41.14 -3.85 41.14 11.98 27.43 4.07"/>
                <polygon class="st28" points="13.71 4.07 27.43 -3.85 27.43 11.98 13.71 4.07"/>
                <polygon class="st29" points="0 4.07 13.71 -3.85 13.71 11.98 0 4.07"/>
                <polygon class="st3" points="274.29 19.9 288 11.98 288 27.82 274.29 19.9"/>
                <polygon class="st48" points="260.57 19.9 274.29 11.98 274.29 27.82 260.57 19.9"/>
                <polygon class="st28" points="246.86 19.9 260.57 11.98 260.57 27.82 246.86 19.9"/>
                <polygon class="st42" points="233.14 19.9 246.86 11.98 246.86 27.82 233.14 19.9"/>
                <polygon class="st13" points="219.43 19.9 233.14 11.98 233.14 27.82 219.43 19.9"/>
                <polygon class="st35" points="205.71 19.9 219.43 11.98 219.43 27.82 205.71 19.9"/>
                <polygon class="st35" points="192 19.9 205.71 11.98 205.71 27.82 192 19.9"/>
                <polygon class="st28" points="178.29 19.9 192 11.98 192 27.82 178.29 19.9"/>
                <polygon class="st41" points="164.57 19.9 178.29 11.98 178.29 27.82 164.57 19.9"/>
                <polygon class="st24" points="150.86 19.9 164.57 11.98 164.57 27.82 150.86 19.9"/>
                <polygon class="st29" points="137.14 19.9 150.86 11.98 150.86 27.82 137.14 19.9"/>
                <polygon class="st13" points="123.43 19.9 137.14 11.98 137.14 27.82 123.43 19.9"/>
                <polygon class="st35" points="109.71 19.9 123.43 11.98 123.43 27.82 109.71 19.9"/>
                <polygon class="st5" points="96 19.9 109.71 11.98 109.71 27.82 96 19.9"/>
                <polygon class="st22" points="82.29 19.9 96 11.98 96 27.82 82.29 19.9"/>
                <polygon class="st48" points="68.57 19.9 82.29 11.98 82.29 27.82 68.57 19.9"/>
                <polygon class="st48" points="54.86 19.9 68.57 11.98 68.57 27.82 54.86 19.9"/>
                <polygon class="st51" points="41.14 19.9 54.86 11.98 54.86 27.82 41.14 19.9"/>
                <polygon class="st45" points="27.43 19.9 41.14 11.98 41.14 27.82 27.43 19.9"/>
                <polygon class="st24" points="13.71 19.9 27.43 11.98 27.43 27.82 13.71 19.9"/>
                <polygon class="st32" points="0 19.9 13.71 11.98 13.71 27.82 0 19.9"/>
                <polygon class="st45" points="274.29 35.74 288 27.82 288 43.66 274.29 35.74"/>
                <polygon class="st8" points="260.57 35.74 274.29 27.82 274.29 43.66 260.57 35.74"/>
                <polygon class="st22" points="246.86 35.74 260.57 27.82 260.57 43.66 246.86 35.74"/>
                <polygon class="st32" points="233.14 35.74 246.86 27.82 246.86 43.66 233.14 35.74"/>
                <polygon class="st48" points="219.43 35.74 233.14 27.82 233.14 43.66 219.43 35.74"/>
                <polygon class="st27" points="205.71 35.74 219.43 27.82 219.43 43.66 205.71 35.74"/>
                <polygon class="st4" points="192 35.74 205.71 27.82 205.71 43.66 192 35.74"/>
                <polygon class="st26" points="178.29 35.74 192 27.82 192 43.66 178.29 35.74"/>
                <polygon class="st45" points="164.57 35.74 178.29 27.82 178.29 43.66 164.57 35.74"/>
                <polygon class="st45" points="150.86 35.74 164.57 27.82 164.57 43.66 150.86 35.74"/>
                <polygon class="st28" points="137.14 35.74 150.86 27.82 150.86 43.66 137.14 35.74"/>
                <polygon class="st7" points="123.43 35.74 137.14 27.82 137.14 43.66 123.43 35.74"/>
                <polygon class="st50" points="109.71 35.74 123.43 27.82 123.43 43.66 109.71 35.74"/>
                <polygon class="st24" points="96 35.74 109.71 27.82 109.71 43.66 96 35.74"/>
                <polygon class="st3" points="82.29 35.74 96 27.82 96 43.66 82.29 35.74"/>
                <polygon class="st45" points="68.57 35.74 82.29 27.82 82.29 43.66 68.57 35.74"/>
                <polygon class="st13" points="54.86 35.74 68.57 27.82 68.57 43.66 54.86 35.74"/>
                <polygon class="st22" points="41.14 35.74 54.86 27.82 54.86 43.66 41.14 35.74"/>
                <polygon class="st7" points="27.43 35.74 41.14 27.82 41.14 43.66 27.43 35.74"/>
                <polygon class="st1" points="13.71 35.74 27.43 27.82 27.43 43.66 13.71 35.74"/>
                <polygon class="st15" points="0 35.74 13.71 27.82 13.71 43.66 0 35.74"/>
              </g>
            </g>
          </g>
          <rect class="st16" y="-113.68" width="288" height="144"/>
          <rect class="st18" y="-113.68" width="288" height="144"/>
        </g>
      </g>
    </g>
  </g>
</svg>