<?xml version="1.0" encoding="UTF-8"?>
<svg xmlns="http://www.w3.org/2000/svg" version="1.1" xmlns:xlink="http://www.w3.org/1999/xlink" viewBox="0 0 288 144">
  <!-- Generator: Adobe Illustrator 29.8.3, SVG Export Plug-In . SVG Version: 2.1.1 Build 3)  -->
  <defs>
    <style>
      .st0 {
        fill: #181818;
      }

      .st1 {
        fill: #111;
      }

      .st2 {
        fill: #313131;
      }

      .st3 {
        fill: #252525;
      }

      .st4 {
        fill: #010101;
      }

      .st5 {
        fill: #2c2c2c;
      }

      .st6 {
        fill: #141414;
      }

      .st7 {
        fill: #2a2a2a;
      }

      .st8 {
        fill: #3e3e3e;
      }

      .st9 {
        fill: #121212;
      }

      .st10 {
        fill: #080808;
      }

      .st11 {
        fill: #272727;
      }

      .st12 {
        fill: #3f3f3f;
      }

      .st13 {
        fill: #0c0c0c;
      }

      .st14 {
        fill: #020202;
      }

      .st15 {
        fill: #2d2d2d;
      }

      .st16 {
        fill: #fff;
      }

      .st17 {
        fill: #1e1e1e;
      }

      .st18 {
        fill: #383838;
      }

      .st19 {
        fill: #131313;
      }

      .st20 {
        fill: #3c3c3c;
      }

      .st21 {
        fill: url(#linear-gradient);
      }

      .st21, .st22, .st23 {
        isolation: isolate;
      }

      .st21, .st23 {
        mix-blend-mode: soft-light;
      }

      .st24 {
        fill: #090909;
      }

      .st25 {
        fill: #050505;
      }

      .st26 {
        fill: #262626;
      }

      .st27 {
        fill: #060606;
      }

      .st28 {
        fill: none;
      }

      .st29 {
        fill: #303030;
      }

      .st30 {
        fill: #1c1c1c;
      }

      .st31 {
        fill: #2f2f2f;
      }

      .st32 {
        fill: #171717;
      }

      .st33 {
        fill: #404040;
      }

      .st34 {
        fill: #3b3b3b;
      }

      .st35 {
        fill: #1f1f1f;
      }

      .st36 {
        fill: #363636;
      }

      .st37 {
        fill: #282828;
      }

      .st38 {
        fill: #3a3a3a;
      }

      .st39 {
        fill: #373737;
      }

      .st40 {
        fill: #202020;
      }

      .st41 {
        fill: #212121;
      }

      .st42 {
        fill: #222;
      }

      .st43 {
        fill: #2b2b2b;
      }

      .st44 {
        fill: #030303;
      }

      .st45 {
        fill: #0d0d0d;
      }

      .st46 {
        fill: #333;
      }

      .st47 {
        fill: #0f0f0f;
      }

      .st48 {
        fill: #1a1a1a;
      }

      .st49 {
        fill: #1d1d1d;
      }

      .st50 {
        fill: #0e0e0e;
      }

      .st51 {
        fill: #1b1b1b;
      }

      .st52 {
        fill: #191919;
      }

      .st53 {
        fill: #0b0b0b;
      }

      .st54 {
        mix-blend-mode: screen;
        opacity: .05;
      }

      .st55 {
        fill: #353535;
      }

      .st56 {
        fill: #393939;
      }

      .st57 {
        fill: #292929;
      }

      .st58 {
        fill: #0a0a0a;
      }

      .st59 {
        fill: #151515;
      }

      .st60 {
        fill: #040404;
      }

      .st61 {
        mix-blend-mode: difference;
      }

      .st23 {
        fill: url(#linear-gradient1);
        opacity: .5;
      }

      .st62 {
        fill: #3d3d3d;
      }

      .st63 {
        fill: #070707;
      }

      .st64 {
        clip-path: url(#clippath);
      }

      .st65 {
        fill: #343434;
      }

      .st66 {
        fill: #101010;
      }

      .st67 {
        fill: #323232;
      }

      .st68 {
        fill: #161616;
      }

      .st69 {
        fill: #2e2e2e;
      }
    </style>
    <clipPath id="clippath">
      <rect class="st28" y="0" width="288" height="144"/>
    </clipPath>
    <linearGradient id="linear-gradient" x1="-.25" y1="34.62" x2="286.46" y2="111.45" gradientTransform="translate(0 145.28) scale(1 -1)" gradientUnits="userSpaceOnUse">
      <stop offset=".21" stop-color="#000"/>
      <stop offset=".8" stop-color="#333"/>
    </linearGradient>
    <linearGradient id="linear-gradient1" x1="-.25" y1="34.62" x2="286.46" y2="111.45" gradientTransform="translate(0 145.28) scale(1 -1)" gradientUnits="userSpaceOnUse">
      <stop offset="0" stop-color="#000"/>
      <stop offset=".04" stop-color="#111"/>
      <stop offset=".11" stop-color="#272727"/>
      <stop offset=".19" stop-color="#383838"/>
      <stop offset=".28" stop-color="#444"/>
      <stop offset=".42" stop-color="#4b4b4b"/>
      <stop offset=".8" stop-color="#4d4d4d"/>
    </linearGradient>
  </defs>
  <g class="st22">
    <g id="Layer_1">
      <g class="st64">
        <g>
          <rect y="-1.01" width="288" height="145.01"/>
          <g>
            <g>
              <polygon class="st59" points="13.71 -3.22 0 -11.14 0 4.7 13.71 -3.22"/>
              <polygon points="27.43 -3.22 13.71 -11.14 13.71 4.7 27.43 -3.22"/>
              <polygon class="st41" points="41.14 -3.22 27.43 -11.14 27.43 4.7 41.14 -3.22"/>
              <polygon points="54.86 -3.22 41.14 -11.14 41.14 4.7 54.86 -3.22"/>
              <polygon class="st9" points="68.57 -3.22 54.86 -11.14 54.86 4.7 68.57 -3.22"/>
              <polygon class="st17" points="82.29 -3.22 68.57 -11.14 68.57 4.7 82.29 -3.22"/>
              <polygon class="st24" points="96 -3.22 82.29 -11.14 82.29 4.7 96 -3.22"/>
              <polygon points="109.71 -3.22 96 -11.14 96 4.7 109.71 -3.22"/>
              <polygon class="st27" points="123.43 -3.22 109.71 -11.14 109.71 4.7 123.43 -3.22"/>
              <polygon class="st0" points="137.14 -3.22 123.43 -11.14 123.43 4.7 137.14 -3.22"/>
              <polygon points="150.86 -3.22 137.14 -11.14 137.14 4.7 150.86 -3.22"/>
              <polygon class="st13" points="164.57 -3.22 150.86 -11.14 150.86 4.7 164.57 -3.22"/>
              <polygon class="st19" points="178.29 -3.22 164.57 -11.14 164.57 4.7 178.29 -3.22"/>
              <polygon class="st47" points="192 -3.22 178.29 -11.14 178.29 4.7 192 -3.22"/>
              <polygon points="205.71 -3.22 192 -11.14 192 4.7 205.71 -3.22"/>
              <polygon class="st52" points="219.43 -3.22 205.71 -11.14 205.71 4.7 219.43 -3.22"/>
              <polygon class="st10" points="233.14 -3.22 219.43 -11.14 219.43 4.7 233.14 -3.22"/>
              <polygon class="st45" points="246.86 -3.22 233.14 -11.14 233.14 4.7 246.86 -3.22"/>
              <polygon points="260.57 -3.22 246.86 -11.14 246.86 4.7 260.57 -3.22"/>
              <polygon class="st43" points="274.29 -3.22 260.57 -11.14 260.57 4.7 274.29 -3.22"/>
              <polygon class="st25" points="288 -3.22 274.29 -11.14 274.29 4.7 288 -3.22"/>
              <polygon class="st57" points="13.71 12.62 0 4.7 0 20.53 13.71 12.62"/>
              <polygon class="st14" points="27.43 12.62 13.71 4.7 13.71 20.53 27.43 12.62"/>
              <polygon class="st41" points="41.14 12.62 27.43 4.7 27.43 20.53 41.14 12.62"/>
              <polygon class="st42" points="54.86 12.62 41.14 4.7 41.14 20.53 54.86 12.62"/>
              <polygon points="68.57 12.62 54.86 4.7 54.86 20.53 68.57 12.62"/>
              <polygon class="st35" points="82.29 12.62 68.57 4.7 68.57 20.53 82.29 12.62"/>
              <polygon class="st8" points="96 12.62 82.29 4.7 82.29 20.53 96 12.62"/>
              <polygon points="109.71 12.62 96 4.7 96 20.53 109.71 12.62"/>
              <polygon class="st1" points="123.43 12.62 109.71 4.7 109.71 20.53 123.43 12.62"/>
              <polygon class="st58" points="137.14 12.62 123.43 4.7 123.43 20.53 137.14 12.62"/>
              <polygon class="st59" points="150.86 12.62 137.14 4.7 137.14 20.53 150.86 12.62"/>
              <polygon points="164.57 12.62 150.86 4.7 150.86 20.53 164.57 12.62"/>
              <polygon class="st13" points="178.29 12.62 164.57 4.7 164.57 20.53 178.29 12.62"/>
              <polygon class="st68" points="192 12.62 178.29 4.7 178.29 20.53 192 12.62"/>
              <polygon points="205.71 12.62 192 4.7 192 20.53 205.71 12.62"/>
              <polygon class="st4" points="219.43 12.62 205.71 4.7 205.71 20.53 219.43 12.62"/>
              <polygon class="st0" points="233.14 12.62 219.43 4.7 219.43 20.53 233.14 12.62"/>
              <polygon points="246.86 12.62 233.14 4.7 233.14 20.53 246.86 12.62"/>
              <polygon class="st14" points="260.57 12.62 246.86 4.7 246.86 20.53 260.57 12.62"/>
              <polygon class="st6" points="274.29 12.62 260.57 4.7 260.57 20.53 274.29 12.62"/>
              <polygon class="st15" points="288 12.62 274.29 4.7 274.29 20.53 288 12.62"/>
              <polygon class="st65" points="13.71 28.45 0 20.53 0 36.37 13.71 28.45"/>
              <polygon class="st14" points="27.43 28.45 13.71 20.53 13.71 36.37 27.43 28.45"/>
              <polygon class="st59" points="41.14 28.45 27.43 20.53 27.43 36.37 41.14 28.45"/>
              <polygon class="st48" points="54.86 28.45 41.14 20.53 41.14 36.37 54.86 28.45"/>
              <polygon class="st58" points="68.57 28.45 54.86 20.53 54.86 36.37 68.57 28.45"/>
              <polygon class="st51" points="82.29 28.45 68.57 20.53 68.57 36.37 82.29 28.45"/>
              <polygon points="96 28.45 82.29 20.53 82.29 36.37 96 28.45"/>
              <polygon class="st24" points="109.71 28.45 96 20.53 96 36.37 109.71 28.45"/>
              <polygon class="st40" points="123.43 28.45 109.71 20.53 109.71 36.37 123.43 28.45"/>
              <polygon class="st1" points="137.14 28.45 123.43 20.53 123.43 36.37 137.14 28.45"/>
              <polygon class="st47" points="150.86 28.45 137.14 20.53 137.14 36.37 150.86 28.45"/>
              <polygon class="st17" points="164.57 28.45 150.86 20.53 150.86 36.37 164.57 28.45"/>
              <polygon class="st68" points="178.29 28.45 164.57 20.53 164.57 36.37 178.29 28.45"/>
              <polygon points="192 28.45 178.29 20.53 178.29 36.37 192 28.45"/>
              <polygon class="st5" points="205.71 28.45 192 20.53 192 36.37 205.71 28.45"/>
              <polygon class="st0" points="219.43 28.45 205.71 20.53 205.71 36.37 219.43 28.45"/>
              <polygon class="st45" points="233.14 28.45 219.43 20.53 219.43 36.37 233.14 28.45"/>
              <polygon points="246.86 28.45 233.14 20.53 233.14 36.37 246.86 28.45"/>
              <polygon class="st66" points="260.57 28.45 246.86 20.53 246.86 36.37 260.57 28.45"/>
              <polygon class="st68" points="274.29 28.45 260.57 20.53 260.57 36.37 274.29 28.45"/>
              <polygon class="st63" points="288 28.45 274.29 20.53 274.29 36.37 288 28.45"/>
              <polygon points="13.71 44.29 0 36.37 0 52.21 13.71 44.29"/>
              <polygon class="st32" points="27.43 44.29 13.71 36.37 13.71 52.21 27.43 44.29"/>
              <polygon class="st45" points="41.14 44.29 27.43 36.37 27.43 52.21 41.14 44.29"/>
              <polygon class="st0" points="54.86 44.29 41.14 36.37 41.14 52.21 54.86 44.29"/>
              <polygon class="st66" points="68.57 44.29 54.86 36.37 54.86 52.21 68.57 44.29"/>
              <polygon points="82.29 44.29 68.57 36.37 68.57 52.21 82.29 44.29"/>
              <polygon class="st60" points="96 44.29 82.29 36.37 82.29 52.21 96 44.29"/>
              <polygon class="st45" points="109.71 44.29 96 36.37 96 52.21 109.71 44.29"/>
              <polygon class="st60" points="123.43 44.29 109.71 36.37 109.71 52.21 123.43 44.29"/>
              <polygon points="137.14 44.29 123.43 36.37 123.43 52.21 137.14 44.29"/>
              <polygon class="st19" points="150.86 44.29 137.14 36.37 137.14 52.21 150.86 44.29"/>
              <polygon points="164.57 44.29 150.86 36.37 150.86 52.21 164.57 44.29"/>
              <polygon points="178.29 44.29 164.57 36.37 164.57 52.21 178.29 44.29"/>
              <polygon points="192 44.29 178.29 36.37 178.29 52.21 192 44.29"/>
              <polygon class="st1" points="205.71 44.29 192 36.37 192 52.21 205.71 44.29"/>
              <polygon class="st49" points="219.43 44.29 205.71 36.37 205.71 52.21 219.43 44.29"/>
              <polygon class="st17" points="233.14 44.29 219.43 36.37 219.43 52.21 233.14 44.29"/>
              <polygon class="st37" points="246.86 44.29 233.14 36.37 233.14 52.21 246.86 44.29"/>
              <polygon class="st68" points="260.57 44.29 246.86 36.37 246.86 52.21 260.57 44.29"/>
              <polygon class="st32" points="274.29 44.29 260.57 36.37 260.57 52.21 274.29 44.29"/>
              <polygon class="st26" points="288 44.29 274.29 36.37 274.29 52.21 288 44.29"/>
              <polygon points="13.71 60.12 0 52.21 0 68.04 13.71 60.12"/>
              <polygon class="st32" points="27.43 60.12 13.71 52.21 13.71 68.04 27.43 60.12"/>
              <polygon points="41.14 60.12 27.43 52.21 27.43 68.04 41.14 60.12"/>
              <polygon points="54.86 60.12 41.14 52.21 41.14 68.04 54.86 60.12"/>
              <polygon class="st67" points="68.57 60.12 54.86 52.21 54.86 68.04 68.57 60.12"/>
              <polygon points="82.29 60.12 68.57 52.21 68.57 68.04 82.29 60.12"/>
              <polygon class="st29" points="96 60.12 82.29 52.21 82.29 68.04 96 60.12"/>
              <polygon class="st47" points="109.71 60.12 96 52.21 96 68.04 109.71 60.12"/>
              <polygon class="st9" points="123.43 60.12 109.71 52.21 109.71 68.04 123.43 60.12"/>
              <polygon points="137.14 60.12 123.43 52.21 123.43 68.04 137.14 60.12"/>
              <polygon class="st44" points="150.86 60.12 137.14 52.21 137.14 68.04 150.86 60.12"/>
              <polygon class="st52" points="164.57 60.12 150.86 52.21 150.86 68.04 164.57 60.12"/>
              <polygon class="st17" points="178.29 60.12 164.57 52.21 164.57 68.04 178.29 60.12"/>
              <polygon class="st9" points="192 60.12 178.29 52.21 178.29 68.04 192 60.12"/>
              <polygon class="st32" points="205.71 60.12 192 52.21 192 68.04 205.71 60.12"/>
              <polygon class="st51" points="219.43 60.12 205.71 52.21 205.71 68.04 219.43 60.12"/>
              <polygon class="st59" points="233.14 60.12 219.43 52.21 219.43 68.04 233.14 60.12"/>
              <polygon points="246.86 60.12 233.14 52.21 233.14 68.04 246.86 60.12"/>
              <polygon class="st1" points="260.57 60.12 246.86 52.21 246.86 68.04 260.57 60.12"/>
              <polygon points="274.29 60.12 260.57 52.21 260.57 68.04 274.29 60.12"/>
              <polygon class="st10" points="288 60.12 274.29 52.21 274.29 68.04 288 60.12"/>
              <polygon points="13.71 75.96 0 68.04 0 83.88 13.71 75.96"/>
              <polygon class="st47" points="27.43 75.96 13.71 68.04 13.71 83.88 27.43 75.96"/>
              <polygon class="st32" points="41.14 75.96 27.43 68.04 27.43 83.88 41.14 75.96"/>
              <polygon class="st47" points="54.86 75.96 41.14 68.04 41.14 83.88 54.86 75.96"/>
              <polygon class="st47" points="68.57 75.96 54.86 68.04 54.86 83.88 68.57 75.96"/>
              <polygon class="st13" points="82.29 75.96 68.57 68.04 68.57 83.88 82.29 75.96"/>
              <polygon class="st63" points="96 75.96 82.29 68.04 82.29 83.88 96 75.96"/>
              <polygon class="st66" points="109.71 75.96 96 68.04 96 83.88 109.71 75.96"/>
              <polygon class="st53" points="123.43 75.96 109.71 68.04 109.71 83.88 123.43 75.96"/>
              <polygon class="st29" points="137.14 75.96 123.43 68.04 123.43 83.88 137.14 75.96"/>
              <polygon class="st1" points="150.86 75.96 137.14 68.04 137.14 83.88 150.86 75.96"/>
              <polygon points="164.57 75.96 150.86 68.04 150.86 83.88 164.57 75.96"/>
              <polygon class="st14" points="178.29 75.96 164.57 68.04 164.57 83.88 178.29 75.96"/>
              <polygon class="st35" points="192 75.96 178.29 68.04 178.29 83.88 192 75.96"/>
              <polygon points="205.71 75.96 192 68.04 192 83.88 205.71 75.96"/>
              <polygon class="st66" points="219.43 75.96 205.71 68.04 205.71 83.88 219.43 75.96"/>
              <polygon class="st52" points="233.14 75.96 219.43 68.04 219.43 83.88 233.14 75.96"/>
              <polygon class="st26" points="246.86 75.96 233.14 68.04 233.14 83.88 246.86 75.96"/>
              <polygon class="st50" points="260.57 75.96 246.86 68.04 246.86 83.88 260.57 75.96"/>
              <polygon points="274.29 75.96 260.57 68.04 260.57 83.88 274.29 75.96"/>
              <polygon points="288 75.96 274.29 68.04 274.29 83.88 288 75.96"/>
              <polygon class="st27" points="13.71 91.79 0 83.88 0 99.71 13.71 91.79"/>
              <polygon class="st24" points="27.43 91.79 13.71 83.88 13.71 99.71 27.43 91.79"/>
              <polygon points="41.14 91.79 27.43 83.88 27.43 99.71 41.14 91.79"/>
              <polygon class="st55" points="54.86 91.79 41.14 83.88 41.14 99.71 54.86 91.79"/>
              <polygon class="st42" points="68.57 91.79 54.86 83.88 54.86 99.71 68.57 91.79"/>
              <polygon points="82.29 91.79 68.57 83.88 68.57 99.71 82.29 91.79"/>
              <polygon points="96 91.79 82.29 83.88 82.29 99.71 96 91.79"/>
              <polygon class="st52" points="109.71 91.79 96 83.88 96 99.71 109.71 91.79"/>
              <polygon class="st50" points="123.43 91.79 109.71 83.88 109.71 99.71 123.43 91.79"/>
              <polygon class="st47" points="137.14 91.79 123.43 83.88 123.43 99.71 137.14 91.79"/>
              <polygon class="st1" points="150.86 91.79 137.14 83.88 137.14 99.71 150.86 91.79"/>
              <polygon class="st63" points="164.57 91.79 150.86 83.88 150.86 99.71 164.57 91.79"/>
              <polygon class="st7" points="178.29 91.79 164.57 83.88 164.57 99.71 178.29 91.79"/>
              <polygon class="st10" points="192 91.79 178.29 83.88 178.29 99.71 192 91.79"/>
              <polygon class="st53" points="205.71 91.79 192 83.88 192 99.71 205.71 91.79"/>
              <polygon class="st52" points="219.43 91.79 205.71 83.88 205.71 99.71 219.43 91.79"/>
              <polygon class="st2" points="233.14 91.79 219.43 83.88 219.43 99.71 233.14 91.79"/>
              <polygon points="246.86 91.79 233.14 83.88 233.14 99.71 246.86 91.79"/>
              <polygon class="st17" points="260.57 91.79 246.86 83.88 246.86 99.71 260.57 91.79"/>
              <polygon class="st60" points="274.29 91.79 260.57 83.88 260.57 99.71 274.29 91.79"/>
              <polygon class="st57" points="288 91.79 274.29 83.88 274.29 99.71 288 91.79"/>
              <polygon points="13.71 107.63 0 99.71 0 115.55 13.71 107.63"/>
              <polygon class="st9" points="27.43 107.63 13.71 99.71 13.71 115.55 27.43 107.63"/>
              <polygon points="41.14 107.63 27.43 99.71 27.43 115.55 41.14 107.63"/>
              <polygon class="st19" points="54.86 107.63 41.14 99.71 41.14 115.55 54.86 107.63"/>
              <polygon class="st63" points="68.57 107.63 54.86 99.71 54.86 115.55 68.57 107.63"/>
              <polygon class="st41" points="82.29 107.63 68.57 99.71 68.57 115.55 82.29 107.63"/>
              <polygon class="st66" points="96 107.63 82.29 99.71 82.29 115.55 96 107.63"/>
              <polygon points="109.71 107.63 96 99.71 96 115.55 109.71 107.63"/>
              <polygon class="st63" points="123.43 107.63 109.71 99.71 109.71 115.55 123.43 107.63"/>
              <polygon class="st3" points="137.14 107.63 123.43 99.71 123.43 115.55 137.14 107.63"/>
              <polygon class="st48" points="150.86 107.63 137.14 99.71 137.14 115.55 150.86 107.63"/>
              <polygon class="st63" points="164.57 107.63 150.86 99.71 150.86 115.55 164.57 107.63"/>
              <polygon class="st59" points="178.29 107.63 164.57 99.71 164.57 115.55 178.29 107.63"/>
              <polygon class="st3" points="192 107.63 178.29 99.71 178.29 115.55 192 107.63"/>
              <polygon points="205.71 107.63 192 99.71 192 115.55 205.71 107.63"/>
              <polygon points="219.43 107.63 205.71 99.71 205.71 115.55 219.43 107.63"/>
              <polygon class="st14" points="233.14 107.63 219.43 99.71 219.43 115.55 233.14 107.63"/>
              <polygon points="246.86 107.63 233.14 99.71 233.14 115.55 246.86 107.63"/>
              <polygon points="260.57 107.63 246.86 99.71 246.86 115.55 260.57 107.63"/>
              <polygon points="274.29 107.63 260.57 99.71 260.57 115.55 274.29 107.63"/>
              <polygon points="288 107.63 274.29 99.71 274.29 115.55 288 107.63"/>
              <polygon points="13.71 123.47 0 115.55 0 131.38 13.71 123.47"/>
              <polygon points="27.43 123.47 13.71 115.55 13.71 131.38 27.43 123.47"/>
              <polygon points="41.14 123.47 27.43 115.55 27.43 131.38 41.14 123.47"/>
              <polygon class="st66" points="54.86 123.47 41.14 115.55 41.14 131.38 54.86 123.47"/>
              <polygon class="st11" points="68.57 123.47 54.86 115.55 54.86 131.38 68.57 123.47"/>
              <polygon class="st66" points="82.29 123.47 68.57 115.55 68.57 131.38 82.29 123.47"/>
              <polygon class="st44" points="96 123.47 82.29 115.55 82.29 131.38 96 123.47"/>
              <polygon class="st24" points="109.71 123.47 96 115.55 96 131.38 109.71 123.47"/>
              <polygon class="st31" points="123.43 123.47 109.71 115.55 109.71 131.38 123.43 123.47"/>
              <polygon points="137.14 123.47 123.43 115.55 123.43 131.38 137.14 123.47"/>
              <polygon points="150.86 123.47 137.14 115.55 137.14 131.38 150.86 123.47"/>
              <polygon class="st13" points="164.57 123.47 150.86 115.55 150.86 131.38 164.57 123.47"/>
              <polygon points="178.29 123.47 164.57 115.55 164.57 131.38 178.29 123.47"/>
              <polygon class="st58" points="192 123.47 178.29 115.55 178.29 131.38 192 123.47"/>
              <polygon class="st13" points="205.71 123.47 192 115.55 192 131.38 205.71 123.47"/>
              <polygon points="219.43 123.47 205.71 115.55 205.71 131.38 219.43 123.47"/>
              <polygon class="st7" points="233.14 123.47 219.43 115.55 219.43 131.38 233.14 123.47"/>
              <polygon class="st13" points="246.86 123.47 233.14 115.55 233.14 131.38 246.86 123.47"/>
              <polygon class="st66" points="260.57 123.47 246.86 115.55 246.86 131.38 260.57 123.47"/>
              <polygon class="st30" points="274.29 123.47 260.57 115.55 260.57 131.38 274.29 123.47"/>
              <polygon points="288 123.47 274.29 115.55 274.29 131.38 288 123.47"/>
              <polygon class="st0" points="13.71 139.3 0 131.38 0 147.22 13.71 139.3"/>
              <polygon points="27.43 139.3 13.71 131.38 13.71 147.22 27.43 139.3"/>
              <polygon class="st51" points="41.14 139.3 27.43 131.38 27.43 147.22 41.14 139.3"/>
              <polygon class="st13" points="54.86 139.3 41.14 131.38 41.14 147.22 54.86 139.3"/>
              <polygon points="68.57 139.3 54.86 131.38 54.86 147.22 68.57 139.3"/>
              <polygon class="st30" points="82.29 139.3 68.57 131.38 68.57 147.22 82.29 139.3"/>
              <polygon class="st14" points="96 139.3 82.29 131.38 82.29 147.22 96 139.3"/>
              <polygon class="st44" points="109.71 139.3 96 131.38 96 147.22 109.71 139.3"/>
              <polygon points="123.43 139.3 109.71 131.38 109.71 147.22 123.43 139.3"/>
              <polygon class="st12" points="137.14 139.3 123.43 131.38 123.43 147.22 137.14 139.3"/>
              <polygon class="st13" points="150.86 139.3 137.14 131.38 137.14 147.22 150.86 139.3"/>
              <polygon class="st19" points="164.57 139.3 150.86 131.38 150.86 147.22 164.57 139.3"/>
              <polygon class="st45" points="178.29 139.3 164.57 131.38 164.57 147.22 178.29 139.3"/>
              <polygon class="st50" points="192 139.3 178.29 131.38 178.29 147.22 192 139.3"/>
              <polygon points="205.71 139.3 192 131.38 192 147.22 205.71 139.3"/>
              <polygon class="st53" points="219.43 139.3 205.71 131.38 205.71 147.22 219.43 139.3"/>
              <polygon points="233.14 139.3 219.43 131.38 219.43 147.22 233.14 139.3"/>
              <polygon class="st26" points="246.86 139.3 233.14 131.38 233.14 147.22 246.86 139.3"/>
              <polygon points="260.57 139.3 246.86 131.38 246.86 147.22 260.57 139.3"/>
              <polygon points="274.29 139.3 260.57 131.38 260.57 147.22 274.29 139.3"/>
              <polygon class="st66" points="288 139.3 274.29 131.38 274.29 147.22 288 139.3"/>
            </g>
            <g class="st54">
              <g>
                <polygon class="st16" points="13.71 -3.22 0 -11.14 0 4.7 13.71 -3.22"/>
                <polygon class="st16" points="27.43 -3.22 13.71 -11.14 13.71 4.7 27.43 -3.22"/>
                <polygon class="st16" points="41.14 -3.22 27.43 -11.14 27.43 4.7 41.14 -3.22"/>
                <polygon class="st16" points="54.86 -3.22 41.14 -11.14 41.14 4.7 54.86 -3.22"/>
                <polygon class="st16" points="68.57 -3.22 54.86 -11.14 54.86 4.7 68.57 -3.22"/>
                <polygon class="st16" points="82.29 -3.22 68.57 -11.14 68.57 4.7 82.29 -3.22"/>
                <polygon class="st16" points="96 -3.22 82.29 -11.14 82.29 4.7 96 -3.22"/>
                <polygon class="st16" points="109.71 -3.22 96 -11.14 96 4.7 109.71 -3.22"/>
                <polygon class="st16" points="123.43 -3.22 109.71 -11.14 109.71 4.7 123.43 -3.22"/>
                <polygon class="st16" points="137.14 -3.22 123.43 -11.14 123.43 4.7 137.14 -3.22"/>
                <polygon class="st16" points="150.86 -3.22 137.14 -11.14 137.14 4.7 150.86 -3.22"/>
                <polygon class="st16" points="164.57 -3.22 150.86 -11.14 150.86 4.7 164.57 -3.22"/>
                <polygon class="st16" points="178.29 -3.22 164.57 -11.14 164.57 4.7 178.29 -3.22"/>
                <polygon class="st16" points="192 -3.22 178.29 -11.14 178.29 4.7 192 -3.22"/>
                <polygon class="st16" points="205.71 -3.22 192 -11.14 192 4.7 205.71 -3.22"/>
                <polygon class="st16" points="219.43 -3.22 205.71 -11.14 205.71 4.7 219.43 -3.22"/>
                <polygon class="st16" points="233.14 -3.22 219.43 -11.14 219.43 4.7 233.14 -3.22"/>
                <polygon class="st16" points="246.86 -3.22 233.14 -11.14 233.14 4.7 246.86 -3.22"/>
                <polygon class="st16" points="260.57 -3.22 246.86 -11.14 246.86 4.7 260.57 -3.22"/>
                <polygon class="st16" points="274.29 -3.22 260.57 -11.14 260.57 4.7 274.29 -3.22"/>
                <polygon class="st16" points="288 -3.22 274.29 -11.14 274.29 4.7 288 -3.22"/>
                <polygon class="st16" points="13.71 12.62 0 4.7 0 20.53 13.71 12.62"/>
                <polygon class="st16" points="27.43 12.62 13.71 4.7 13.71 20.53 27.43 12.62"/>
                <polygon class="st16" points="41.14 12.62 27.43 4.7 27.43 20.53 41.14 12.62"/>
                <polygon class="st16" points="54.86 12.62 41.14 4.7 41.14 20.53 54.86 12.62"/>
                <polygon class="st16" points="68.57 12.62 54.86 4.7 54.86 20.53 68.57 12.62"/>
                <polygon class="st16" points="82.29 12.62 68.57 4.7 68.57 20.53 82.29 12.62"/>
                <polygon class="st16" points="96 12.62 82.29 4.7 82.29 20.53 96 12.62"/>
                <polygon class="st16" points="109.71 12.62 96 4.7 96 20.53 109.71 12.62"/>
                <polygon class="st16" points="123.43 12.62 109.71 4.7 109.71 20.53 123.43 12.62"/>
                <polygon class="st16" points="137.14 12.62 123.43 4.7 123.43 20.53 137.14 12.62"/>
                <polygon class="st16" points="150.86 12.62 137.14 4.7 137.14 20.53 150.86 12.62"/>
                <polygon class="st16" points="164.57 12.62 150.86 4.7 150.86 20.53 164.57 12.62"/>
                <polygon class="st16" points="178.29 12.62 164.57 4.7 164.57 20.53 178.29 12.62"/>
                <polygon class="st16" points="192 12.62 178.29 4.7 178.29 20.53 192 12.62"/>
                <polygon class="st16" points="205.71 12.62 192 4.7 192 20.53 205.71 12.62"/>
                <polygon class="st16" points="219.43 12.62 205.71 4.7 205.71 20.53 219.43 12.62"/>
                <polygon class="st16" points="233.14 12.62 219.43 4.7 219.43 20.53 233.14 12.62"/>
                <polygon class="st16" points="246.86 12.62 233.14 4.7 233.14 20.53 246.86 12.62"/>
                <polygon class="st16" points="260.57 12.62 246.86 4.7 246.86 20.53 260.57 12.62"/>
                <polygon class="st16" points="274.29 12.62 260.57 4.7 260.57 20.53 274.29 12.62"/>
                <polygon class="st16" points="288 12.62 274.29 4.7 274.29 20.53 288 12.62"/>
                <polygon class="st16" points="13.71 28.45 0 20.53 0 36.37 13.71 28.45"/>
                <polygon class="st16" points="27.43 28.45 13.71 20.53 13.71 36.37 27.43 28.45"/>
                <polygon class="st16" points="41.14 28.45 27.43 20.53 27.43 36.37 41.14 28.45"/>
                <polygon class="st16" points="54.86 28.45 41.14 20.53 41.14 36.37 54.86 28.45"/>
                <polygon class="st16" points="68.57 28.45 54.86 20.53 54.86 36.37 68.57 28.45"/>
                <polygon class="st16" points="82.29 28.45 68.57 20.53 68.57 36.37 82.29 28.45"/>
                <polygon class="st16" points="96 28.45 82.29 20.53 82.29 36.37 96 28.45"/>
                <polygon class="st16" points="109.71 28.45 96 20.53 96 36.37 109.71 28.45"/>
                <polygon class="st16" points="123.43 28.45 109.71 20.53 109.71 36.37 123.43 28.45"/>
                <polygon class="st16" points="137.14 28.45 123.43 20.53 123.43 36.37 137.14 28.45"/>
                <polygon class="st16" points="150.86 28.45 137.14 20.53 137.14 36.37 150.86 28.45"/>
                <polygon class="st16" points="164.57 28.45 150.86 20.53 150.86 36.37 164.57 28.45"/>
                <polygon class="st16" points="178.29 28.45 164.57 20.53 164.57 36.37 178.29 28.45"/>
                <polygon class="st16" points="192 28.45 178.29 20.53 178.29 36.37 192 28.45"/>
                <polygon class="st16" points="205.71 28.45 192 20.53 192 36.37 205.71 28.45"/>
                <polygon class="st16" points="219.43 28.45 205.71 20.53 205.71 36.37 219.43 28.45"/>
                <polygon class="st16" points="233.14 28.45 219.43 20.53 219.43 36.37 233.14 28.45"/>
                <polygon class="st16" points="246.86 28.45 233.14 20.53 233.14 36.37 246.86 28.45"/>
                <polygon class="st16" points="260.57 28.45 246.86 20.53 246.86 36.37 260.57 28.45"/>
                <polygon class="st16" points="274.29 28.45 260.57 20.53 260.57 36.37 274.29 28.45"/>
                <polygon class="st16" points="288 28.45 274.29 20.53 274.29 36.37 288 28.45"/>
                <polygon class="st16" points="13.71 44.29 0 36.37 0 52.21 13.71 44.29"/>
                <polygon class="st16" points="27.43 44.29 13.71 36.37 13.71 52.21 27.43 44.29"/>
                <polygon class="st16" points="41.14 44.29 27.43 36.37 27.43 52.21 41.14 44.29"/>
                <polygon class="st16" points="54.86 44.29 41.14 36.37 41.14 52.21 54.86 44.29"/>
                <polygon class="st16" points="68.57 44.29 54.86 36.37 54.86 52.21 68.57 44.29"/>
                <polygon class="st16" points="82.29 44.29 68.57 36.37 68.57 52.21 82.29 44.29"/>
                <polygon class="st16" points="96 44.29 82.29 36.37 82.29 52.21 96 44.29"/>
                <polygon class="st16" points="109.71 44.29 96 36.37 96 52.21 109.71 44.29"/>
                <polygon class="st16" points="123.43 44.29 109.71 36.37 109.71 52.21 123.43 44.29"/>
                <polygon class="st16" points="137.14 44.29 123.43 36.37 123.43 52.21 137.14 44.29"/>
                <polygon class="st16" points="150.86 44.29 137.14 36.37 137.14 52.21 150.86 44.29"/>
                <polygon class="st16" points="164.57 44.29 150.86 36.37 150.86 52.21 164.57 44.29"/>
                <polygon class="st16" points="178.29 44.29 164.57 36.37 164.57 52.21 178.29 44.29"/>
                <polygon class="st16" points="192 44.29 178.29 36.37 178.29 52.21 192 44.29"/>
                <polygon class="st16" points="205.71 44.29 192 36.37 192 52.21 205.71 44.29"/>
                <polygon class="st16" points="219.43 44.29 205.71 36.37 205.71 52.21 219.43 44.29"/>
                <polygon class="st16" points="233.14 44.29 219.43 36.37 219.43 52.21 233.14 44.29"/>
                <polygon class="st16" points="246.86 44.29 233.14 36.37 233.14 52.21 246.86 44.29"/>
                <polygon class="st16" points="260.57 44.29 246.86 36.37 246.86 52.21 260.57 44.29"/>
                <polygon class="st16" points="274.29 44.29 260.57 36.37 260.57 52.21 274.29 44.29"/>
                <polygon class="st16" points="288 44.29 274.29 36.37 274.29 52.21 288 44.29"/>
                <polygon class="st16" points="13.71 60.12 0 52.21 0 68.04 13.71 60.12"/>
                <polygon class="st16" points="27.43 60.12 13.71 52.21 13.71 68.04 27.43 60.12"/>
                <polygon class="st16" points="41.14 60.12 27.43 52.21 27.43 68.04 41.14 60.12"/>
                <polygon class="st16" points="54.86 60.12 41.14 52.21 41.14 68.04 54.86 60.12"/>
                <polygon class="st16" points="68.57 60.12 54.86 52.21 54.86 68.04 68.57 60.12"/>
                <polygon class="st16" points="82.29 60.12 68.57 52.21 68.57 68.04 82.29 60.12"/>
                <polygon class="st16" points="96 60.12 82.29 52.21 82.29 68.04 96 60.12"/>
                <polygon class="st16" points="109.71 60.12 96 52.21 96 68.04 109.71 60.12"/>
                <polygon class="st16" points="123.43 60.12 109.71 52.21 109.71 68.04 123.43 60.12"/>
                <polygon class="st16" points="137.14 60.12 123.43 52.21 123.43 68.04 137.14 60.12"/>
                <polygon class="st16" points="150.86 60.12 137.14 52.21 137.14 68.04 150.86 60.12"/>
                <polygon class="st16" points="164.57 60.12 150.86 52.21 150.86 68.04 164.57 60.12"/>
                <polygon class="st16" points="178.29 60.12 164.57 52.21 164.57 68.04 178.29 60.12"/>
                <polygon class="st16" points="192 60.12 178.29 52.21 178.29 68.04 192 60.12"/>
                <polygon class="st16" points="205.71 60.12 192 52.21 192 68.04 205.71 60.12"/>
                <polygon class="st16" points="219.43 60.12 205.71 52.21 205.71 68.04 219.43 60.12"/>
                <polygon class="st16" points="233.14 60.12 219.43 52.21 219.43 68.04 233.14 60.12"/>
                <polygon class="st16" points="246.86 60.12 233.14 52.21 233.14 68.04 246.86 60.12"/>
                <polygon class="st16" points="260.57 60.12 246.86 52.21 246.86 68.04 260.57 60.12"/>
                <polygon class="st16" points="274.29 60.12 260.57 52.21 260.57 68.04 274.29 60.12"/>
                <polygon class="st16" points="288 60.12 274.29 52.21 274.29 68.04 288 60.12"/>
                <polygon class="st16" points="13.71 75.96 0 68.04 0 83.88 13.71 75.96"/>
                <polygon class="st16" points="27.43 75.96 13.71 68.04 13.71 83.88 27.43 75.96"/>
                <polygon class="st16" points="41.14 75.96 27.43 68.04 27.43 83.88 41.14 75.96"/>
                <polygon class="st16" points="54.86 75.96 41.14 68.04 41.14 83.88 54.86 75.96"/>
                <polygon class="st16" points="68.57 75.96 54.86 68.04 54.86 83.88 68.57 75.96"/>
                <polygon class="st16" points="82.29 75.96 68.57 68.04 68.57 83.88 82.29 75.96"/>
                <polygon class="st16" points="96 75.96 82.29 68.04 82.29 83.88 96 75.96"/>
                <polygon class="st16" points="109.71 75.96 96 68.04 96 83.88 109.71 75.96"/>
                <polygon class="st16" points="123.43 75.96 109.71 68.04 109.71 83.88 123.43 75.96"/>
                <polygon class="st16" points="137.14 75.96 123.43 68.04 123.43 83.88 137.14 75.96"/>
                <polygon class="st16" points="150.86 75.96 137.14 68.04 137.14 83.88 150.86 75.96"/>
                <polygon class="st16" points="164.57 75.96 150.86 68.04 150.86 83.88 164.57 75.96"/>
                <polygon class="st16" points="178.29 75.96 164.57 68.04 164.57 83.88 178.29 75.96"/>
                <polygon class="st16" points="192 75.96 178.29 68.04 178.29 83.88 192 75.96"/>
                <polygon class="st16" points="205.71 75.96 192 68.04 192 83.88 205.71 75.96"/>
                <polygon class="st16" points="219.43 75.96 205.71 68.04 205.71 83.88 219.43 75.96"/>
                <polygon class="st16" points="233.14 75.96 219.43 68.04 219.43 83.88 233.14 75.96"/>
                <polygon class="st16" points="246.86 75.96 233.14 68.04 233.14 83.88 246.86 75.96"/>
                <polygon class="st16" points="260.57 75.96 246.86 68.04 246.86 83.88 260.57 75.96"/>
                <polygon class="st16" points="274.29 75.96 260.57 68.04 260.57 83.88 274.29 75.96"/>
                <polygon class="st16" points="288 75.96 274.29 68.04 274.29 83.88 288 75.96"/>
                <polygon class="st16" points="13.71 91.79 0 83.88 0 99.71 13.71 91.79"/>
                <polygon class="st16" points="27.43 91.79 13.71 83.88 13.71 99.71 27.43 91.79"/>
                <polygon class="st16" points="41.14 91.79 27.43 83.88 27.43 99.71 41.14 91.79"/>
                <polygon class="st16" points="54.86 91.79 41.14 83.88 41.14 99.71 54.86 91.79"/>
                <polygon class="st16" points="68.57 91.79 54.86 83.88 54.86 99.71 68.57 91.79"/>
                <polygon class="st16" points="82.29 91.79 68.57 83.88 68.57 99.71 82.29 91.79"/>
                <polygon class="st16" points="96 91.79 82.29 83.88 82.29 99.71 96 91.79"/>
                <polygon class="st16" points="109.71 91.79 96 83.88 96 99.71 109.71 91.79"/>
                <polygon class="st16" points="123.43 91.79 109.71 83.88 109.71 99.71 123.43 91.79"/>
                <polygon class="st16" points="137.14 91.79 123.43 83.88 123.43 99.71 137.14 91.79"/>
                <polygon class="st16" points="150.86 91.79 137.14 83.88 137.14 99.71 150.86 91.79"/>
                <polygon class="st16" points="164.57 91.79 150.86 83.88 150.86 99.71 164.57 91.79"/>
                <polygon class="st16" points="178.29 91.79 164.57 83.88 164.57 99.71 178.29 91.79"/>
                <polygon class="st16" points="192 91.79 178.29 83.88 178.29 99.71 192 91.79"/>
                <polygon class="st16" points="205.71 91.79 192 83.88 192 99.71 205.71 91.79"/>
                <polygon class="st16" points="219.43 91.79 205.71 83.88 205.71 99.71 219.43 91.79"/>
                <polygon class="st16" points="233.14 91.79 219.43 83.88 219.43 99.71 233.14 91.79"/>
                <polygon class="st16" points="246.86 91.79 233.14 83.88 233.14 99.71 246.86 91.79"/>
                <polygon class="st16" points="260.57 91.79 246.86 83.88 246.86 99.71 260.57 91.79"/>
                <polygon class="st16" points="274.29 91.79 260.57 83.88 260.57 99.71 274.29 91.79"/>
                <polygon class="st16" points="288 91.79 274.29 83.88 274.29 99.71 288 91.79"/>
                <polygon class="st16" points="13.71 107.63 0 99.71 0 115.55 13.71 107.63"/>
                <polygon class="st16" points="27.43 107.63 13.71 99.71 13.71 115.55 27.43 107.63"/>
                <polygon class="st16" points="41.14 107.63 27.43 99.71 27.43 115.55 41.14 107.63"/>
                <polygon class="st16" points="54.86 107.63 41.14 99.71 41.14 115.55 54.86 107.63"/>
                <polygon class="st16" points="68.57 107.63 54.86 99.71 54.86 115.55 68.57 107.63"/>
                <polygon class="st16" points="82.29 107.63 68.57 99.71 68.57 115.55 82.29 107.63"/>
                <polygon class="st16" points="96 107.63 82.29 99.71 82.29 115.55 96 107.63"/>
                <polygon class="st16" points="109.71 107.63 96 99.71 96 115.55 109.71 107.63"/>
                <polygon class="st16" points="123.43 107.63 109.71 99.71 109.71 115.55 123.43 107.63"/>
                <polygon class="st16" points="137.14 107.63 123.43 99.71 123.43 115.55 137.14 107.63"/>
                <polygon class="st16" points="150.86 107.63 137.14 99.71 137.14 115.55 150.86 107.63"/>
                <polygon class="st16" points="164.57 107.63 150.86 99.71 150.86 115.55 164.57 107.63"/>
                <polygon class="st16" points="178.29 107.63 164.57 99.71 164.57 115.55 178.29 107.63"/>
                <polygon class="st16" points="192 107.63 178.29 99.71 178.29 115.55 192 107.63"/>
                <polygon class="st16" points="205.71 107.63 192 99.71 192 115.55 205.71 107.63"/>
                <polygon class="st16" points="219.43 107.63 205.71 99.71 205.71 115.55 219.43 107.63"/>
                <polygon class="st16" points="233.14 107.63 219.43 99.71 219.43 115.55 233.14 107.63"/>
                <polygon class="st16" points="246.86 107.63 233.14 99.71 233.14 115.55 246.86 107.63"/>
                <polygon class="st16" points="260.57 107.63 246.86 99.71 246.86 115.55 260.57 107.63"/>
                <polygon class="st16" points="274.29 107.63 260.57 99.71 260.57 115.55 274.29 107.63"/>
                <polygon class="st16" points="288 107.63 274.29 99.71 274.29 115.55 288 107.63"/>
                <polygon class="st16" points="13.71 123.47 0 115.55 0 131.38 13.71 123.47"/>
                <polygon class="st16" points="27.43 123.47 13.71 115.55 13.71 131.38 27.43 123.47"/>
                <polygon class="st16" points="41.14 123.47 27.43 115.55 27.43 131.38 41.14 123.47"/>
                <polygon class="st16" points="54.86 123.47 41.14 115.55 41.14 131.38 54.86 123.47"/>
                <polygon class="st16" points="68.57 123.47 54.86 115.55 54.86 131.38 68.57 123.47"/>
                <polygon class="st16" points="82.29 123.47 68.57 115.55 68.57 131.38 82.29 123.47"/>
                <polygon class="st16" points="96 123.47 82.29 115.55 82.29 131.38 96 123.47"/>
                <polygon class="st16" points="109.71 123.47 96 115.55 96 131.38 109.71 123.47"/>
                <polygon class="st16" points="123.43 123.47 109.71 115.55 109.71 131.38 123.43 123.47"/>
                <polygon class="st16" points="137.14 123.47 123.43 115.55 123.43 131.38 137.14 123.47"/>
                <polygon class="st16" points="150.86 123.47 137.14 115.55 137.14 131.38 150.86 123.47"/>
                <polygon class="st16" points="164.57 123.47 150.86 115.55 150.86 131.38 164.57 123.47"/>
                <polygon class="st16" points="178.29 123.47 164.57 115.55 164.57 131.38 178.29 123.47"/>
                <polygon class="st16" points="192 123.47 178.29 115.55 178.29 131.38 192 123.47"/>
                <polygon class="st16" points="205.71 123.47 192 115.55 192 131.38 205.71 123.47"/>
                <polygon class="st16" points="219.43 123.47 205.71 115.55 205.71 131.38 219.43 123.47"/>
                <polygon class="st16" points="233.14 123.47 219.43 115.55 219.43 131.38 233.14 123.47"/>
                <polygon class="st16" points="246.86 123.47 233.14 115.55 233.14 131.38 246.86 123.47"/>
                <polygon class="st16" points="260.57 123.47 246.86 115.55 246.86 131.38 260.57 123.47"/>
                <polygon class="st16" points="274.29 123.47 260.57 115.55 260.57 131.38 274.29 123.47"/>
                <polygon class="st16" points="288 123.47 274.29 115.55 274.29 131.38 288 123.47"/>
                <polygon class="st16" points="13.71 139.3 0 131.38 0 147.22 13.71 139.3"/>
                <polygon class="st16" points="27.43 139.3 13.71 131.38 13.71 147.22 27.43 139.3"/>
                <polygon class="st16" points="41.14 139.3 27.43 131.38 27.43 147.22 41.14 139.3"/>
                <polygon class="st16" points="54.86 139.3 41.14 131.38 41.14 147.22 54.86 139.3"/>
                <polygon class="st16" points="68.57 139.3 54.86 131.38 54.86 147.22 68.57 139.3"/>
                <polygon class="st16" points="82.29 139.3 68.57 131.38 68.57 147.22 82.29 139.3"/>
                <polygon class="st16" points="96 139.3 82.29 131.38 82.29 147.22 96 139.3"/>
                <polygon class="st16" points="109.71 139.3 96 131.38 96 147.22 109.71 139.3"/>
                <polygon class="st16" points="123.43 139.3 109.71 131.38 109.71 147.22 123.43 139.3"/>
                <polygon class="st16" points="137.14 139.3 123.43 131.38 123.43 147.22 137.14 139.3"/>
                <polygon class="st16" points="150.86 139.3 137.14 131.38 137.14 147.22 150.86 139.3"/>
                <polygon class="st16" points="164.57 139.3 150.86 131.38 150.86 147.22 164.57 139.3"/>
                <polygon class="st16" points="178.29 139.3 164.57 131.38 164.57 147.22 178.29 139.3"/>
                <polygon class="st16" points="192 139.3 178.29 131.38 178.29 147.22 192 139.3"/>
                <polygon class="st16" points="205.71 139.3 192 131.38 192 147.22 205.71 139.3"/>
                <polygon class="st16" points="219.43 139.3 205.71 131.38 205.71 147.22 219.43 139.3"/>
                <polygon class="st16" points="233.14 139.3 219.43 131.38 219.43 147.22 233.14 139.3"/>
                <polygon class="st16" points="246.86 139.3 233.14 131.38 233.14 147.22 246.86 139.3"/>
                <polygon class="st16" points="260.57 139.3 246.86 131.38 246.86 147.22 260.57 139.3"/>
                <polygon class="st16" points="274.29 139.3 260.57 131.38 260.57 147.22 274.29 139.3"/>
                <polygon class="st16" points="288 139.3 274.29 131.38 274.29 147.22 288 139.3"/>
              </g>
            </g>
          </g>
          <g>
            <polygon points="272.41 5.78 286.13 -2.14 286.13 13.69 272.41 5.78"/>
            <polygon points="258.7 5.78 272.41 -2.14 272.41 13.69 258.7 5.78"/>
            <polygon points="244.98 5.78 258.7 -2.14 258.7 13.69 244.98 5.78"/>
            <polygon points="231.27 5.78 244.98 -2.14 244.98 13.69 231.27 5.78"/>
            <polygon points="217.55 5.78 231.27 -2.14 231.27 13.69 217.55 5.78"/>
            <polygon points="203.84 5.78 217.55 -2.14 217.55 13.69 203.84 5.78"/>
            <polygon points="190.13 5.78 203.84 -2.14 203.84 13.69 190.13 5.78"/>
            <polygon points="176.41 5.78 190.13 -2.14 190.13 13.69 176.41 5.78"/>
            <polygon points="162.7 5.78 176.41 -2.14 176.41 13.69 162.7 5.78"/>
            <polygon points="148.98 5.78 162.7 -2.14 162.7 13.69 148.98 5.78"/>
            <polygon points="135.27 5.78 148.98 -2.14 148.98 13.69 135.27 5.78"/>
            <polygon points="121.55 5.78 135.27 -2.14 135.27 13.69 121.55 5.78"/>
            <polygon points="107.84 5.78 121.55 -2.14 121.55 13.69 107.84 5.78"/>
            <polygon points="94.13 5.78 107.84 -2.14 107.84 13.69 94.13 5.78"/>
            <polygon points="80.41 5.78 94.13 -2.14 94.13 13.69 80.41 5.78"/>
            <polygon points="66.7 5.78 80.41 -2.14 80.41 13.69 66.7 5.78"/>
            <polygon points="52.98 5.78 66.7 -2.14 66.7 13.69 52.98 5.78"/>
            <polygon points="39.27 5.78 52.98 -2.14 52.98 13.69 39.27 5.78"/>
            <polygon points="25.55 5.78 39.27 -2.14 39.27 13.69 25.55 5.78"/>
            <polygon points="11.84 5.78 25.55 -2.14 25.55 13.69 11.84 5.78"/>
            <polygon points="-1.87 5.78 11.84 -2.14 11.84 13.69 -1.87 5.78"/>
            <polygon points="272.41 21.61 286.13 13.69 286.13 29.53 272.41 21.61"/>
            <polygon points="258.7 21.61 272.41 13.69 272.41 29.53 258.7 21.61"/>
            <polygon points="244.98 21.61 258.7 13.69 258.7 29.53 244.98 21.61"/>
            <polygon points="231.27 21.61 244.98 13.69 244.98 29.53 231.27 21.61"/>
            <polygon points="217.55 21.61 231.27 13.69 231.27 29.53 217.55 21.61"/>
            <polygon points="203.84 21.61 217.55 13.69 217.55 29.53 203.84 21.61"/>
            <polygon points="190.13 21.61 203.84 13.69 203.84 29.53 190.13 21.61"/>
            <polygon points="176.41 21.61 190.13 13.69 190.13 29.53 176.41 21.61"/>
            <polygon points="162.7 21.61 176.41 13.69 176.41 29.53 162.7 21.61"/>
            <polygon points="148.98 21.61 162.7 13.69 162.7 29.53 148.98 21.61"/>
            <polygon points="135.27 21.61 148.98 13.69 148.98 29.53 135.27 21.61"/>
            <polygon points="121.55 21.61 135.27 13.69 135.27 29.53 121.55 21.61"/>
            <polygon points="107.84 21.61 121.55 13.69 121.55 29.53 107.84 21.61"/>
            <polygon points="94.13 21.61 107.84 13.69 107.84 29.53 94.13 21.61"/>
            <polygon points="80.41 21.61 94.13 13.69 94.13 29.53 80.41 21.61"/>
            <polygon points="66.7 21.61 80.41 13.69 80.41 29.53 66.7 21.61"/>
            <polygon points="52.98 21.61 66.7 13.69 66.7 29.53 52.98 21.61"/>
            <polygon points="39.27 21.61 52.98 13.69 52.98 29.53 39.27 21.61"/>
            <polygon points="25.55 21.61 39.27 13.69 39.27 29.53 25.55 21.61"/>
            <polygon points="11.84 21.61 25.55 13.69 25.55 29.53 11.84 21.61"/>
            <polygon points="-1.87 21.61 11.84 13.69 11.84 29.53 -1.87 21.61"/>
            <polygon points="272.41 37.45 286.13 29.53 286.13 45.37 272.41 37.45"/>
            <polygon points="258.7 37.45 272.41 29.53 272.41 45.37 258.7 37.45"/>
            <polygon points="244.98 37.45 258.7 29.53 258.7 45.37 244.98 37.45"/>
            <polygon points="231.27 37.45 244.98 29.53 244.98 45.37 231.27 37.45"/>
            <polygon points="217.55 37.45 231.27 29.53 231.27 45.37 217.55 37.45"/>
            <polygon points="203.84 37.45 217.55 29.53 217.55 45.37 203.84 37.45"/>
            <polygon points="190.13 37.45 203.84 29.53 203.84 45.37 190.13 37.45"/>
            <polygon points="176.41 37.45 190.13 29.53 190.13 45.37 176.41 37.45"/>
            <polygon points="162.7 37.45 176.41 29.53 176.41 45.37 162.7 37.45"/>
            <polygon points="148.98 37.45 162.7 29.53 162.7 45.37 148.98 37.45"/>
            <polygon points="135.27 37.45 148.98 29.53 148.98 45.37 135.27 37.45"/>
            <polygon points="121.55 37.45 135.27 29.53 135.27 45.37 121.55 37.45"/>
            <polygon points="107.84 37.45 121.55 29.53 121.55 45.37 107.84 37.45"/>
            <polygon points="94.13 37.45 107.84 29.53 107.84 45.37 94.13 37.45"/>
            <polygon points="80.41 37.45 94.13 29.53 94.13 45.37 80.41 37.45"/>
            <polygon points="66.7 37.45 80.41 29.53 80.41 45.37 66.7 37.45"/>
            <polygon points="52.98 37.45 66.7 29.53 66.7 45.37 52.98 37.45"/>
            <polygon points="39.27 37.45 52.98 29.53 52.98 45.37 39.27 37.45"/>
            <polygon points="25.55 37.45 39.27 29.53 39.27 45.37 25.55 37.45"/>
            <polygon points="11.84 37.45 25.55 29.53 25.55 45.37 11.84 37.45"/>
            <polygon points="-1.87 37.45 11.84 29.53 11.84 45.37 -1.87 37.45"/>
            <polygon points="272.41 53.28 286.13 45.37 286.13 61.2 272.41 53.28"/>
            <polygon points="258.7 53.28 272.41 45.37 272.41 61.2 258.7 53.28"/>
            <polygon points="244.98 53.28 258.7 45.37 258.7 61.2 244.98 53.28"/>
            <polygon points="231.27 53.28 244.98 45.37 244.98 61.2 231.27 53.28"/>
            <polygon points="217.55 53.28 231.27 45.37 231.27 61.2 217.55 53.28"/>
            <polygon points="203.84 53.28 217.55 45.37 217.55 61.2 203.84 53.28"/>
            <polygon points="190.13 53.28 203.84 45.37 203.84 61.2 190.13 53.28"/>
            <polygon points="176.41 53.28 190.13 45.37 190.13 61.2 176.41 53.28"/>
            <polygon points="162.7 53.28 176.41 45.37 176.41 61.2 162.7 53.28"/>
            <polygon points="148.98 53.28 162.7 45.37 162.7 61.2 148.98 53.28"/>
            <polygon points="135.27 53.28 148.98 45.37 148.98 61.2 135.27 53.28"/>
            <polygon points="121.55 53.28 135.27 45.37 135.27 61.2 121.55 53.28"/>
            <polygon points="107.84 53.28 121.55 45.37 121.55 61.2 107.84 53.28"/>
            <polygon points="94.13 53.28 107.84 45.37 107.84 61.2 94.13 53.28"/>
            <polygon points="80.41 53.28 94.13 45.37 94.13 61.2 80.41 53.28"/>
            <polygon points="66.7 53.28 80.41 45.37 80.41 61.2 66.7 53.28"/>
            <polygon points="52.98 53.28 66.7 45.37 66.7 61.2 52.98 53.28"/>
            <polygon points="39.27 53.28 52.98 45.37 52.98 61.2 39.27 53.28"/>
            <polygon points="25.55 53.28 39.27 45.37 39.27 61.2 25.55 53.28"/>
            <polygon points="11.84 53.28 25.55 45.37 25.55 61.2 11.84 53.28"/>
            <polygon points="-1.87 53.28 11.84 45.37 11.84 61.2 -1.87 53.28"/>
            <polygon points="272.41 69.12 286.13 61.2 286.13 77.04 272.41 69.12"/>
            <polygon points="258.7 69.12 272.41 61.2 272.41 77.04 258.7 69.12"/>
            <polygon points="244.98 69.12 258.7 61.2 258.7 77.04 244.98 69.12"/>
            <polygon points="231.27 69.12 244.98 61.2 244.98 77.04 231.27 69.12"/>
            <polygon points="217.55 69.12 231.27 61.2 231.27 77.04 217.55 69.12"/>
            <polygon points="203.84 69.12 217.55 61.2 217.55 77.04 203.84 69.12"/>
            <polygon points="190.13 69.12 203.84 61.2 203.84 77.04 190.13 69.12"/>
            <polygon points="176.41 69.12 190.13 61.2 190.13 77.04 176.41 69.12"/>
            <polygon points="162.7 69.12 176.41 61.2 176.41 77.04 162.7 69.12"/>
            <polygon points="148.98 69.12 162.7 61.2 162.7 77.04 148.98 69.12"/>
            <polygon points="135.27 69.12 148.98 61.2 148.98 77.04 135.27 69.12"/>
            <polygon points="121.55 69.12 135.27 61.2 135.27 77.04 121.55 69.12"/>
            <polygon points="107.84 69.12 121.55 61.2 121.55 77.04 107.84 69.12"/>
            <polygon points="94.13 69.12 107.84 61.2 107.84 77.04 94.13 69.12"/>
            <polygon points="80.41 69.12 94.13 61.2 94.13 77.04 80.41 69.12"/>
            <polygon points="66.7 69.12 80.41 61.2 80.41 77.04 66.7 69.12"/>
            <polygon points="52.98 69.12 66.7 61.2 66.7 77.04 52.98 69.12"/>
            <polygon points="39.27 69.12 52.98 61.2 52.98 77.04 39.27 69.12"/>
            <polygon points="25.55 69.12 39.27 61.2 39.27 77.04 25.55 69.12"/>
            <polygon points="11.84 69.12 25.55 61.2 25.55 77.04 11.84 69.12"/>
            <polygon points="-1.87 69.12 11.84 61.2 11.84 77.04 -1.87 69.12"/>
            <polygon points="272.41 84.96 286.13 77.04 286.13 92.87 272.41 84.96"/>
            <polygon points="258.7 84.96 272.41 77.04 272.41 92.87 258.7 84.96"/>
            <polygon points="244.98 84.96 258.7 77.04 258.7 92.87 244.98 84.96"/>
            <polygon points="231.27 84.96 244.98 77.04 244.98 92.87 231.27 84.96"/>
            <polygon points="217.55 84.96 231.27 77.04 231.27 92.87 217.55 84.96"/>
            <polygon points="203.84 84.96 217.55 77.04 217.55 92.87 203.84 84.96"/>
            <polygon points="190.13 84.96 203.84 77.04 203.84 92.87 190.13 84.96"/>
            <polygon points="176.41 84.96 190.13 77.04 190.13 92.87 176.41 84.96"/>
            <polygon points="162.7 84.96 176.41 77.04 176.41 92.87 162.7 84.96"/>
            <polygon points="148.98 84.96 162.7 77.04 162.7 92.87 148.98 84.96"/>
            <polygon points="135.27 84.96 148.98 77.04 148.98 92.87 135.27 84.96"/>
            <polygon points="121.55 84.96 135.27 77.04 135.27 92.87 121.55 84.96"/>
            <polygon points="107.84 84.96 121.55 77.04 121.55 92.87 107.84 84.96"/>
            <polygon points="94.13 84.96 107.84 77.04 107.84 92.87 94.13 84.96"/>
            <polygon points="80.41 84.96 94.13 77.04 94.13 92.87 80.41 84.96"/>
            <polygon points="66.7 84.96 80.41 77.04 80.41 92.87 66.7 84.96"/>
            <polygon points="52.98 84.96 66.7 77.04 66.7 92.87 52.98 84.96"/>
            <polygon points="39.27 84.96 52.98 77.04 52.98 92.87 39.27 84.96"/>
            <polygon points="25.55 84.96 39.27 77.04 39.27 92.87 25.55 84.96"/>
            <polygon points="11.84 84.96 25.55 77.04 25.55 92.87 11.84 84.96"/>
            <polygon points="-1.87 84.96 11.84 77.04 11.84 92.87 -1.87 84.96"/>
            <polygon points="272.41 100.79 286.13 92.87 286.13 108.71 272.41 100.79"/>
            <polygon points="258.7 100.79 272.41 92.87 272.41 108.71 258.7 100.79"/>
            <polygon points="244.98 100.79 258.7 92.87 258.7 108.71 244.98 100.79"/>
            <polygon points="231.27 100.79 244.98 92.87 244.98 108.71 231.27 100.79"/>
            <polygon points="217.55 100.79 231.27 92.87 231.27 108.71 217.55 100.79"/>
            <polygon points="203.84 100.79 217.55 92.87 217.55 108.71 203.84 100.79"/>
            <polygon points="190.13 100.79 203.84 92.87 203.84 108.71 190.13 100.79"/>
            <polygon points="176.41 100.79 190.13 92.87 190.13 108.71 176.41 100.79"/>
            <polygon points="162.7 100.79 176.41 92.87 176.41 108.71 162.7 100.79"/>
            <polygon points="148.98 100.79 162.7 92.87 162.7 108.71 148.98 100.79"/>
            <polygon points="135.27 100.79 148.98 92.87 148.98 108.71 135.27 100.79"/>
            <polygon points="121.55 100.79 135.27 92.87 135.27 108.71 121.55 100.79"/>
            <polygon points="107.84 100.79 121.55 92.87 121.55 108.71 107.84 100.79"/>
            <polygon points="94.13 100.79 107.84 92.87 107.84 108.71 94.13 100.79"/>
            <polygon points="80.41 100.79 94.13 92.87 94.13 108.71 80.41 100.79"/>
            <polygon points="66.7 100.79 80.41 92.87 80.41 108.71 66.7 100.79"/>
            <polygon points="52.98 100.79 66.7 92.87 66.7 108.71 52.98 100.79"/>
            <polygon points="39.27 100.79 52.98 92.87 52.98 108.71 39.27 100.79"/>
            <polygon points="25.55 100.79 39.27 92.87 39.27 108.71 25.55 100.79"/>
            <polygon points="11.84 100.79 25.55 92.87 25.55 108.71 11.84 100.79"/>
            <polygon points="-1.87 100.79 11.84 92.87 11.84 108.71 -1.87 100.79"/>
            <polygon points="272.41 116.63 286.13 108.71 286.13 124.54 272.41 116.63"/>
            <polygon points="258.7 116.63 272.41 108.71 272.41 124.54 258.7 116.63"/>
            <polygon points="244.98 116.63 258.7 108.71 258.7 124.54 244.98 116.63"/>
            <polygon points="231.27 116.63 244.98 108.71 244.98 124.54 231.27 116.63"/>
            <polygon points="217.55 116.63 231.27 108.71 231.27 124.54 217.55 116.63"/>
            <polygon points="203.84 116.63 217.55 108.71 217.55 124.54 203.84 116.63"/>
            <polygon points="190.13 116.63 203.84 108.71 203.84 124.54 190.13 116.63"/>
            <polygon points="176.41 116.63 190.13 108.71 190.13 124.54 176.41 116.63"/>
            <polygon points="162.7 116.63 176.41 108.71 176.41 124.54 162.7 116.63"/>
            <polygon points="148.98 116.63 162.7 108.71 162.7 124.54 148.98 116.63"/>
            <polygon points="135.27 116.63 148.98 108.71 148.98 124.54 135.27 116.63"/>
            <polygon points="121.55 116.63 135.27 108.71 135.27 124.54 121.55 116.63"/>
            <polygon points="107.84 116.63 121.55 108.71 121.55 124.54 107.84 116.63"/>
            <polygon points="94.13 116.63 107.84 108.71 107.84 124.54 94.13 116.63"/>
            <polygon points="80.41 116.63 94.13 108.71 94.13 124.54 80.41 116.63"/>
            <polygon points="66.7 116.63 80.41 108.71 80.41 124.54 66.7 116.63"/>
            <polygon points="52.98 116.63 66.7 108.71 66.7 124.54 52.98 116.63"/>
            <polygon points="39.27 116.63 52.98 108.71 52.98 124.54 39.27 116.63"/>
            <polygon points="25.55 116.63 39.27 108.71 39.27 124.54 25.55 116.63"/>
            <polygon points="11.84 116.63 25.55 108.71 25.55 124.54 11.84 116.63"/>
            <polygon points="-1.87 116.63 11.84 108.71 11.84 124.54 -1.87 116.63"/>
            <polygon points="272.41 132.46 286.13 124.54 286.13 140.38 272.41 132.46"/>
            <polygon points="258.7 132.46 272.41 124.54 272.41 140.38 258.7 132.46"/>
            <polygon points="244.98 132.46 258.7 124.54 258.7 140.38 244.98 132.46"/>
            <polygon points="231.27 132.46 244.98 124.54 244.98 140.38 231.27 132.46"/>
            <polygon points="217.55 132.46 231.27 124.54 231.27 140.38 217.55 132.46"/>
            <polygon points="203.84 132.46 217.55 124.54 217.55 140.38 203.84 132.46"/>
            <polygon points="190.13 132.46 203.84 124.54 203.84 140.38 190.13 132.46"/>
            <polygon points="176.41 132.46 190.13 124.54 190.13 140.38 176.41 132.46"/>
            <polygon points="162.7 132.46 176.41 124.54 176.41 140.38 162.7 132.46"/>
            <polygon points="148.98 132.46 162.7 124.54 162.7 140.38 148.98 132.46"/>
            <polygon points="135.27 132.46 148.98 124.54 148.98 140.38 135.27 132.46"/>
            <polygon points="121.55 132.46 135.27 124.54 135.27 140.38 121.55 132.46"/>
            <polygon points="107.84 132.46 121.55 124.54 121.55 140.38 107.84 132.46"/>
            <polygon points="94.13 132.46 107.84 124.54 107.84 140.38 94.13 132.46"/>
            <polygon points="80.41 132.46 94.13 124.54 94.13 140.38 80.41 132.46"/>
            <polygon points="66.7 132.46 80.41 124.54 80.41 140.38 66.7 132.46"/>
            <polygon points="52.98 132.46 66.7 124.54 66.7 140.38 52.98 132.46"/>
            <polygon points="39.27 132.46 52.98 124.54 52.98 140.38 39.27 132.46"/>
            <polygon points="25.55 132.46 39.27 124.54 39.27 140.38 25.55 132.46"/>
            <polygon points="11.84 132.46 25.55 124.54 25.55 140.38 11.84 132.46"/>
            <polygon points="-1.87 132.46 11.84 124.54 11.84 140.38 -1.87 132.46"/>
            <polygon points="272.41 148.3 286.13 140.38 286.13 156.22 272.41 148.3"/>
            <polygon points="258.7 148.3 272.41 140.38 272.41 156.22 258.7 148.3"/>
            <polygon points="244.98 148.3 258.7 140.38 258.7 156.22 244.98 148.3"/>
            <polygon points="231.27 148.3 244.98 140.38 244.98 156.22 231.27 148.3"/>
            <polygon points="217.55 148.3 231.27 140.38 231.27 156.22 217.55 148.3"/>
            <polygon points="203.84 148.3 217.55 140.38 217.55 156.22 203.84 148.3"/>
            <polygon points="190.13 148.3 203.84 140.38 203.84 156.22 190.13 148.3"/>
            <polygon points="176.41 148.3 190.13 140.38 190.13 156.22 176.41 148.3"/>
            <polygon points="162.7 148.3 176.41 140.38 176.41 156.22 162.7 148.3"/>
            <polygon points="148.98 148.3 162.7 140.38 162.7 156.22 148.98 148.3"/>
            <polygon points="135.27 148.3 148.98 140.38 148.98 156.22 135.27 148.3"/>
            <polygon points="121.55 148.3 135.27 140.38 135.27 156.22 121.55 148.3"/>
            <polygon points="107.84 148.3 121.55 140.38 121.55 156.22 107.84 148.3"/>
            <polygon points="94.13 148.3 107.84 140.38 107.84 156.22 94.13 148.3"/>
            <polygon points="80.41 148.3 94.13 140.38 94.13 156.22 80.41 148.3"/>
            <polygon points="66.7 148.3 80.41 140.38 80.41 156.22 66.7 148.3"/>
            <polygon points="52.98 148.3 66.7 140.38 66.7 156.22 52.98 148.3"/>
            <polygon points="39.27 148.3 52.98 140.38 52.98 156.22 39.27 148.3"/>
            <polygon points="25.55 148.3 39.27 140.38 39.27 156.22 25.55 148.3"/>
            <polygon points="11.84 148.3 25.55 140.38 25.55 156.22 11.84 148.3"/>
            <polygon points="-1.87 148.3 11.84 140.38 11.84 156.22 -1.87 148.3"/>
          </g>
          <g>
            <polygon class="st29" points="274.29 6.9 288 -1.02 288 14.81 274.29 6.9"/>
            <polygon class="st69" points="260.57 6.9 274.29 -1.02 274.29 14.81 260.57 6.9"/>
            <polygon class="st5" points="246.86 6.9 260.57 -1.02 260.57 14.81 246.86 6.9"/>
            <polygon class="st67" points="233.14 6.9 246.86 -1.02 246.86 14.81 233.14 6.9"/>
            <polygon class="st38" points="219.43 6.9 233.14 -1.02 233.14 14.81 219.43 6.9"/>
            <polygon class="st62" points="205.71 6.9 219.43 -1.02 219.43 14.81 205.71 6.9"/>
            <polygon class="st65" points="192 6.9 205.71 -1.02 205.71 14.81 192 6.9"/>
            <polygon class="st31" points="178.29 6.9 192 -1.02 192 14.81 178.29 6.9"/>
            <polygon class="st29" points="164.57 6.9 178.29 -1.02 178.29 14.81 164.57 6.9"/>
            <polygon class="st29" points="150.86 6.9 164.57 -1.02 164.57 14.81 150.86 6.9"/>
            <polygon class="st39" points="137.14 6.9 150.86 -1.02 150.86 14.81 137.14 6.9"/>
            <polygon class="st2" points="123.43 6.9 137.14 -1.02 137.14 14.81 123.43 6.9"/>
            <polygon class="st57" points="109.71 6.9 123.43 -1.02 123.43 14.81 109.71 6.9"/>
            <polygon class="st62" points="96 6.9 109.71 -1.02 109.71 14.81 96 6.9"/>
            <polygon class="st39" points="82.29 6.9 96 -1.02 96 14.81 82.29 6.9"/>
            <polygon class="st26" points="68.57 6.9 82.29 -1.02 82.29 14.81 68.57 6.9"/>
            <polygon class="st2" points="54.86 6.9 68.57 -1.02 68.57 14.81 54.86 6.9"/>
            <polygon class="st67" points="41.14 6.9 54.86 -1.02 54.86 14.81 41.14 6.9"/>
            <polygon class="st20" points="27.43 6.9 41.14 -1.02 41.14 14.81 27.43 6.9"/>
            <polygon class="st11" points="13.71 6.9 27.43 -1.02 27.43 14.81 13.71 6.9"/>
            <polygon class="st36" points="0 6.9 13.71 -1.02 13.71 14.81 0 6.9"/>
            <polygon class="st62" points="274.29 22.73 288 14.81 288 30.65 274.29 22.73"/>
            <polygon class="st34" points="260.57 22.73 274.29 14.81 274.29 30.65 260.57 22.73"/>
            <polygon class="st11" points="246.86 22.73 260.57 14.81 260.57 30.65 246.86 22.73"/>
            <polygon class="st43" points="233.14 22.73 246.86 14.81 246.86 30.65 233.14 22.73"/>
            <polygon class="st55" points="219.43 22.73 233.14 14.81 233.14 30.65 219.43 22.73"/>
            <polygon class="st34" points="205.71 22.73 219.43 14.81 219.43 30.65 205.71 22.73"/>
            <polygon class="st31" points="192 22.73 205.71 14.81 205.71 30.65 192 22.73"/>
            <polygon class="st56" points="178.29 22.73 192 14.81 192 30.65 178.29 22.73"/>
            <polygon class="st7" points="164.57 22.73 178.29 14.81 178.29 30.65 164.57 22.73"/>
            <polygon class="st20" points="150.86 22.73 164.57 14.81 164.57 30.65 150.86 22.73"/>
            <polygon class="st7" points="137.14 22.73 150.86 14.81 150.86 30.65 137.14 22.73"/>
            <polygon class="st34" points="123.43 22.73 137.14 14.81 137.14 30.65 123.43 22.73"/>
            <polygon class="st31" points="109.71 22.73 123.43 14.81 123.43 30.65 109.71 22.73"/>
            <polygon class="st39" points="96 22.73 109.71 14.81 109.71 30.65 96 22.73"/>
            <polygon class="st65" points="82.29 22.73 96 14.81 96 30.65 82.29 22.73"/>
            <polygon class="st34" points="68.57 22.73 82.29 14.81 82.29 30.65 68.57 22.73"/>
            <polygon class="st29" points="54.86 22.73 68.57 14.81 68.57 30.65 54.86 22.73"/>
            <polygon class="st37" points="41.14 22.73 54.86 14.81 54.86 30.65 41.14 22.73"/>
            <polygon class="st2" points="27.43 22.73 41.14 14.81 41.14 30.65 27.43 22.73"/>
            <polygon class="st55" points="13.71 22.73 27.43 14.81 27.43 30.65 13.71 22.73"/>
            <polygon class="st57" points="0 22.73 13.71 14.81 13.71 30.65 0 22.73"/>
            <polygon class="st46" points="274.29 38.57 288 30.65 288 46.49 274.29 38.57"/>
            <polygon class="st34" points="260.57 38.57 274.29 30.65 274.29 46.49 260.57 38.57"/>
            <polygon class="st7" points="246.86 38.57 260.57 30.65 260.57 46.49 246.86 38.57"/>
            <polygon class="st34" points="233.14 38.57 246.86 30.65 246.86 46.49 233.14 38.57"/>
            <polygon class="st38" points="219.43 38.57 233.14 30.65 233.14 46.49 219.43 38.57"/>
            <polygon class="st46" points="205.71 38.57 219.43 30.65 219.43 46.49 205.71 38.57"/>
            <polygon class="st15" points="192 38.57 205.71 30.65 205.71 46.49 192 38.57"/>
            <polygon class="st55" points="178.29 38.57 192 30.65 192 46.49 178.29 38.57"/>
            <polygon class="st2" points="164.57 38.57 178.29 30.65 178.29 46.49 164.57 38.57"/>
            <polygon class="st33" points="150.86 38.57 164.57 30.65 164.57 46.49 150.86 38.57"/>
            <polygon class="st7" points="137.14 38.57 150.86 30.65 150.86 46.49 137.14 38.57"/>
            <polygon class="st38" points="123.43 38.57 137.14 30.65 137.14 46.49 123.43 38.57"/>
            <polygon class="st38" points="109.71 38.57 123.43 30.65 123.43 46.49 109.71 38.57"/>
            <polygon class="st65" points="96 38.57 109.71 30.65 109.71 46.49 96 38.57"/>
            <polygon class="st57" points="82.29 38.57 96 30.65 96 46.49 82.29 38.57"/>
            <polygon class="st31" points="68.57 38.57 82.29 30.65 82.29 46.49 68.57 38.57"/>
            <polygon class="st46" points="54.86 38.57 68.57 30.65 68.57 46.49 54.86 38.57"/>
            <polygon class="st65" points="41.14 38.57 54.86 30.65 54.86 46.49 41.14 38.57"/>
            <polygon class="st67" points="27.43 38.57 41.14 30.65 41.14 46.49 27.43 38.57"/>
            <polygon class="st56" points="13.71 38.57 27.43 30.65 27.43 46.49 13.71 38.57"/>
            <polygon class="st11" points="0 38.57 13.71 30.65 13.71 46.49 0 38.57"/>
            <polygon class="st2" points="274.29 54.4 288 46.49 288 62.32 274.29 54.4"/>
            <polygon class="st15" points="260.57 54.4 274.29 46.49 274.29 62.32 260.57 54.4"/>
            <polygon class="st39" points="246.86 54.4 260.57 46.49 260.57 62.32 246.86 54.4"/>
            <polygon class="st43" points="233.14 54.4 246.86 46.49 246.86 62.32 233.14 54.4"/>
            <polygon class="st31" points="219.43 54.4 233.14 46.49 233.14 62.32 219.43 54.4"/>
            <polygon class="st46" points="205.71 54.4 219.43 46.49 219.43 62.32 205.71 54.4"/>
            <polygon class="st7" points="192 54.4 205.71 46.49 205.71 62.32 192 54.4"/>
            <polygon class="st2" points="178.29 54.4 192 46.49 192 62.32 178.29 54.4"/>
            <polygon class="st43" points="164.57 54.4 178.29 46.49 178.29 62.32 164.57 54.4"/>
            <polygon class="st5" points="150.86 54.4 164.57 46.49 164.57 62.32 150.86 54.4"/>
            <polygon class="st15" points="137.14 54.4 150.86 46.49 150.86 62.32 137.14 54.4"/>
            <polygon class="st65" points="123.43 54.4 137.14 46.49 137.14 62.32 123.43 54.4"/>
            <polygon class="st5" points="109.71 54.4 123.43 46.49 123.43 62.32 109.71 54.4"/>
            <polygon class="st62" points="96 54.4 109.71 46.49 109.71 62.32 96 54.4"/>
            <polygon class="st12" points="82.29 54.4 96 46.49 96 62.32 82.29 54.4"/>
            <polygon class="st56" points="68.57 54.4 82.29 46.49 82.29 62.32 68.57 54.4"/>
            <polygon class="st31" points="54.86 54.4 68.57 46.49 68.57 62.32 54.86 54.4"/>
            <polygon class="st15" points="41.14 54.4 54.86 46.49 54.86 62.32 41.14 54.4"/>
            <polygon class="st67" points="27.43 54.4 41.14 46.49 41.14 62.32 27.43 54.4"/>
            <polygon class="st39" points="13.71 54.4 27.43 46.49 27.43 62.32 13.71 54.4"/>
            <polygon class="st20" points="0 54.4 13.71 46.49 13.71 62.32 0 54.4"/>
            <polygon class="st37" points="274.29 70.24 288 62.32 288 78.16 274.29 70.24"/>
            <polygon class="st65" points="260.57 70.24 274.29 62.32 274.29 78.16 260.57 70.24"/>
            <polygon class="st46" points="246.86 70.24 260.57 62.32 260.57 78.16 246.86 70.24"/>
            <polygon class="st65" points="233.14 70.24 246.86 62.32 246.86 78.16 233.14 70.24"/>
            <polygon class="st31" points="219.43 70.24 233.14 62.32 233.14 78.16 219.43 70.24"/>
            <polygon class="st37" points="205.71 70.24 219.43 62.32 219.43 78.16 205.71 70.24"/>
            <polygon class="st2" points="192 70.24 205.71 62.32 205.71 78.16 192 70.24"/>
            <polygon class="st2" points="178.29 70.24 192 62.32 192 78.16 178.29 70.24"/>
            <polygon class="st11" points="164.57 70.24 178.29 62.32 178.29 78.16 164.57 70.24"/>
            <polygon class="st46" points="150.86 70.24 164.57 62.32 164.57 78.16 150.86 70.24"/>
            <polygon class="st46" points="137.14 70.24 150.86 62.32 150.86 78.16 137.14 70.24"/>
            <polygon class="st69" points="123.43 70.24 137.14 62.32 137.14 78.16 123.43 70.24"/>
            <polygon class="st56" points="109.71 70.24 123.43 62.32 123.43 78.16 109.71 70.24"/>
            <polygon class="st12" points="96 70.24 109.71 62.32 109.71 78.16 96 70.24"/>
            <polygon class="st11" points="82.29 70.24 96 62.32 96 78.16 82.29 70.24"/>
            <polygon class="st12" points="68.57 70.24 82.29 62.32 82.29 78.16 68.57 70.24"/>
            <polygon class="st5" points="54.86 70.24 68.57 62.32 68.57 78.16 54.86 70.24"/>
            <polygon class="st38" points="41.14 70.24 54.86 62.32 54.86 78.16 41.14 70.24"/>
            <polygon class="st39" points="27.43 70.24 41.14 62.32 41.14 78.16 27.43 70.24"/>
            <polygon class="st38" points="13.71 70.24 27.43 62.32 27.43 78.16 13.71 70.24"/>
            <polygon class="st11" points="0 70.24 13.71 62.32 13.71 78.16 0 70.24"/>
            <polygon class="st12" points="274.29 86.08 288 78.16 288 93.99 274.29 86.08"/>
            <polygon class="st37" points="260.57 86.08 274.29 78.16 274.29 93.99 260.57 86.08"/>
            <polygon class="st7" points="246.86 86.08 260.57 78.16 260.57 93.99 246.86 86.08"/>
            <polygon class="st18" points="233.14 86.08 246.86 78.16 246.86 93.99 233.14 86.08"/>
            <polygon class="st20" points="219.43 86.08 233.14 78.16 233.14 93.99 219.43 86.08"/>
            <polygon class="st56" points="205.71 86.08 219.43 78.16 219.43 93.99 205.71 86.08"/>
            <polygon class="st38" points="192 86.08 205.71 78.16 205.71 93.99 192 86.08"/>
            <polygon class="st69" points="178.29 86.08 192 78.16 192 93.99 178.29 86.08"/>
            <polygon class="st20" points="164.57 86.08 178.29 78.16 178.29 93.99 164.57 86.08"/>
            <polygon class="st69" points="150.86 86.08 164.57 78.16 164.57 93.99 150.86 86.08"/>
            <polygon class="st62" points="137.14 86.08 150.86 78.16 150.86 93.99 137.14 86.08"/>
            <polygon class="st62" points="123.43 86.08 137.14 78.16 137.14 93.99 123.43 86.08"/>
            <polygon class="st11" points="109.71 86.08 123.43 78.16 123.43 93.99 109.71 86.08"/>
            <polygon class="st56" points="96 86.08 109.71 78.16 109.71 93.99 96 86.08"/>
            <polygon class="st18" points="82.29 86.08 96 78.16 96 93.99 82.29 86.08"/>
            <polygon class="st37" points="68.57 86.08 82.29 78.16 82.29 93.99 68.57 86.08"/>
            <polygon class="st65" points="54.86 86.08 68.57 78.16 68.57 93.99 54.86 86.08"/>
            <polygon class="st20" points="41.14 86.08 54.86 78.16 54.86 93.99 41.14 86.08"/>
            <polygon class="st29" points="27.43 86.08 41.14 78.16 41.14 93.99 27.43 86.08"/>
            <polygon class="st69" points="13.71 86.08 27.43 78.16 27.43 93.99 13.71 86.08"/>
            <polygon class="st38" points="0 86.08 13.71 78.16 13.71 93.99 0 86.08"/>
            <polygon class="st39" points="274.29 101.91 288 93.99 288 109.83 274.29 101.91"/>
            <polygon class="st11" points="260.57 101.91 274.29 93.99 274.29 109.83 260.57 101.91"/>
            <polygon class="st62" points="246.86 101.91 260.57 93.99 260.57 109.83 246.86 101.91"/>
            <polygon class="st7" points="233.14 101.91 246.86 93.99 246.86 109.83 233.14 101.91"/>
            <polygon class="st29" points="219.43 101.91 233.14 93.99 233.14 109.83 219.43 101.91"/>
            <polygon class="st33" points="205.71 101.91 219.43 93.99 219.43 109.83 205.71 101.91"/>
            <polygon class="st55" points="192 101.91 205.71 93.99 205.71 109.83 192 101.91"/>
            <polygon class="st67" points="178.29 101.91 192 93.99 192 109.83 178.29 101.91"/>
            <polygon class="st43" points="164.57 101.91 178.29 93.99 178.29 109.83 164.57 101.91"/>
            <polygon class="st69" points="150.86 101.91 164.57 93.99 164.57 109.83 150.86 101.91"/>
            <polygon class="st36" points="137.14 101.91 150.86 93.99 150.86 109.83 137.14 101.91"/>
            <polygon class="st55" points="123.43 101.91 137.14 93.99 137.14 109.83 123.43 101.91"/>
            <polygon class="st67" points="109.71 101.91 123.43 93.99 123.43 109.83 109.71 101.91"/>
            <polygon class="st39" points="96 101.91 109.71 93.99 109.71 109.83 96 101.91"/>
            <polygon class="st33" points="82.29 101.91 96 93.99 96 109.83 82.29 101.91"/>
            <polygon class="st56" points="68.57 101.91 82.29 93.99 82.29 109.83 68.57 101.91"/>
            <polygon class="st65" points="54.86 101.91 68.57 93.99 68.57 109.83 54.86 101.91"/>
            <polygon class="st12" points="41.14 101.91 54.86 93.99 54.86 109.83 41.14 101.91"/>
            <polygon class="st8" points="27.43 101.91 41.14 93.99 41.14 109.83 27.43 101.91"/>
            <polygon class="st38" points="13.71 101.91 27.43 93.99 27.43 109.83 13.71 101.91"/>
            <polygon class="st57" points="0 101.91 13.71 93.99 13.71 109.83 0 101.91"/>
            <polygon class="st38" points="274.29 117.75 288 109.83 288 125.67 274.29 117.75"/>
            <polygon class="st29" points="260.57 117.75 274.29 109.83 274.29 125.67 260.57 117.75"/>
            <polygon class="st38" points="246.86 117.75 260.57 109.83 260.57 125.67 246.86 117.75"/>
            <polygon class="st38" points="233.14 117.75 246.86 109.83 246.86 125.67 233.14 117.75"/>
            <polygon class="st65" points="219.43 117.75 233.14 109.83 233.14 125.67 219.43 117.75"/>
            <polygon class="st5" points="205.71 117.75 219.43 109.83 219.43 125.67 205.71 117.75"/>
            <polygon class="st36" points="192 117.75 205.71 109.83 205.71 125.67 192 117.75"/>
            <polygon class="st5" points="178.29 117.75 192 109.83 192 125.67 178.29 117.75"/>
            <polygon class="st12" points="164.57 117.75 178.29 109.83 178.29 125.67 164.57 117.75"/>
            <polygon class="st65" points="150.86 117.75 164.57 109.83 164.57 125.67 150.86 117.75"/>
            <polygon class="st39" points="137.14 117.75 150.86 109.83 150.86 125.67 137.14 117.75"/>
            <polygon class="st39" points="123.43 117.75 137.14 109.83 137.14 125.67 123.43 117.75"/>
            <polygon class="st18" points="109.71 117.75 123.43 109.83 123.43 125.67 109.71 117.75"/>
            <polygon class="st69" points="96 117.75 109.71 109.83 109.71 125.67 96 117.75"/>
            <polygon class="st69" points="82.29 117.75 96 109.83 96 125.67 82.29 117.75"/>
            <polygon class="st67" points="68.57 117.75 82.29 109.83 82.29 125.67 68.57 117.75"/>
            <polygon class="st15" points="54.86 117.75 68.57 109.83 68.57 125.67 54.86 117.75"/>
            <polygon class="st29" points="41.14 117.75 54.86 109.83 54.86 125.67 41.14 117.75"/>
            <polygon class="st12" points="27.43 117.75 41.14 109.83 41.14 125.67 27.43 117.75"/>
            <polygon class="st37" points="13.71 117.75 27.43 109.83 27.43 125.67 13.71 117.75"/>
            <polygon class="st38" points="0 117.75 13.71 109.83 13.71 125.67 0 117.75"/>
            <polygon class="st5" points="274.29 133.58 288 125.67 288 141.5 274.29 133.58"/>
            <polygon class="st65" points="260.57 133.58 274.29 125.67 274.29 141.5 260.57 133.58"/>
            <polygon class="st37" points="246.86 133.58 260.57 125.67 260.57 141.5 246.86 133.58"/>
            <polygon class="st57" points="233.14 133.58 246.86 125.67 246.86 141.5 233.14 133.58"/>
            <polygon class="st18" points="219.43 133.58 233.14 125.67 233.14 141.5 219.43 133.58"/>
            <polygon class="st46" points="205.71 133.58 219.43 125.67 219.43 141.5 205.71 133.58"/>
            <polygon class="st46" points="192 133.58 205.71 125.67 205.71 141.5 192 133.58"/>
            <polygon class="st37" points="178.29 133.58 192 125.67 192 141.5 178.29 133.58"/>
            <polygon class="st55" points="164.57 133.58 178.29 125.67 178.29 141.5 164.57 133.58"/>
            <polygon class="st31" points="150.86 133.58 164.57 125.67 164.57 141.5 150.86 133.58"/>
            <polygon class="st38" points="137.14 133.58 150.86 125.67 150.86 141.5 137.14 133.58"/>
            <polygon class="st18" points="123.43 133.58 137.14 125.67 137.14 141.5 123.43 133.58"/>
            <polygon class="st46" points="109.71 133.58 123.43 125.67 123.43 141.5 109.71 133.58"/>
            <polygon class="st8" points="96 133.58 109.71 125.67 109.71 141.5 96 133.58"/>
            <polygon class="st29" points="82.29 133.58 96 125.67 96 141.5 82.29 133.58"/>
            <polygon class="st65" points="68.57 133.58 82.29 125.67 82.29 141.5 68.57 133.58"/>
            <polygon class="st65" points="54.86 133.58 68.57 125.67 68.57 141.5 54.86 133.58"/>
            <polygon class="st69" points="41.14 133.58 54.86 125.67 54.86 141.5 41.14 133.58"/>
            <polygon class="st62" points="27.43 133.58 41.14 125.67 41.14 141.5 27.43 133.58"/>
            <polygon class="st31" points="13.71 133.58 27.43 125.67 27.43 141.5 13.71 133.58"/>
            <polygon class="st43" points="0 133.58 13.71 125.67 13.71 141.5 0 133.58"/>
            <polygon class="st62" points="274.29 149.42 288 141.5 288 157.34 274.29 149.42"/>
            <polygon class="st12" points="260.57 149.42 274.29 141.5 274.29 157.34 260.57 149.42"/>
            <polygon class="st29" points="246.86 149.42 260.57 141.5 260.57 157.34 246.86 149.42"/>
            <polygon class="st43" points="233.14 149.42 246.86 141.5 246.86 157.34 233.14 149.42"/>
            <polygon class="st65" points="219.43 149.42 233.14 141.5 233.14 157.34 219.43 149.42"/>
            <polygon class="st36" points="205.71 149.42 219.43 141.5 219.43 157.34 205.71 149.42"/>
            <polygon class="st7" points="192 149.42 205.71 141.5 205.71 157.34 192 149.42"/>
            <polygon class="st34" points="178.29 149.42 192 141.5 192 157.34 178.29 149.42"/>
            <polygon class="st62" points="164.57 149.42 178.29 141.5 178.29 157.34 164.57 149.42"/>
            <polygon class="st62" points="150.86 149.42 164.57 141.5 164.57 157.34 150.86 149.42"/>
            <polygon class="st37" points="137.14 149.42 150.86 141.5 150.86 157.34 137.14 149.42"/>
            <polygon class="st11" points="123.43 149.42 137.14 141.5 137.14 157.34 123.43 149.42"/>
            <polygon class="st67" points="109.71 149.42 123.43 141.5 123.43 157.34 109.71 149.42"/>
            <polygon class="st31" points="96 149.42 109.71 141.5 109.71 157.34 96 149.42"/>
            <polygon class="st5" points="82.29 149.42 96 141.5 96 157.34 82.29 149.42"/>
            <polygon class="st62" points="68.57 149.42 82.29 141.5 82.29 157.34 68.57 149.42"/>
            <polygon class="st18" points="54.86 149.42 68.57 141.5 68.57 157.34 54.86 149.42"/>
            <polygon class="st29" points="41.14 149.42 54.86 141.5 54.86 157.34 41.14 149.42"/>
            <polygon class="st11" points="27.43 149.42 41.14 141.5 41.14 157.34 27.43 149.42"/>
            <polygon class="st2" points="13.71 149.42 27.43 141.5 27.43 157.34 13.71 149.42"/>
            <polygon class="st20" points="0 149.42 13.71 141.5 13.71 157.34 0 149.42"/>
          </g>
        </g>
      </g>
      <rect class="st21" y="0" width="288" height="144"/>
      <rect class="st23" y="0" width="288" height="144"/>
    </g>
    <g id="Layer_2" class="st61">
      <g>
        <path class="st16" d="M31.75,53.95v-9.14h9.88v9.14h-9.88ZM31.75,96.34v-37.3h9.88v37.3h-9.88Z"/>
        <path class="st16" d="M74.78,73.04c0-2.39-.45-4.2-1.34-5.43s-2.38-1.85-4.46-1.85c-2.27,0-4.13.81-5.57,2.44-1.44,1.63-2.15,4.12-2.13,7.47v20.67h-9.88v-37.3h9.21v4.89c1.34-1.88,2.98-3.3,4.92-4.27,1.95-.97,4.09-1.46,6.43-1.46,4.1,0,7.24,1.1,9.42,3.29,2.18,2.19,3.27,5.27,3.27,9.23v25.63h-9.88v-23.31h.01Z"/>
        <path class="st16" d="M112.18,59.04v7.84h-6.96v18.18c0,1.08.08,1.89.23,2.44s.42.94.81,1.16.97.33,1.74.33c1.22,0,2.52-.19,3.9-.56l1.23,7.63c-1.08.35-2.27.63-3.59.84-1.31.21-2.64.32-3.97.32-2.62,0-4.68-.36-6.15-1.09-1.48-.73-2.53-1.92-3.15-3.57s-.93-3.93-.93-6.84v-18.84h-5.27v-7.84h5.27v-6.82l9.88-7v13.82h6.96Z"/>
      </g>
      <g>
        <path class="st16" d="M255.64,29.29c0-6.9-5.59-12.49-12.49-12.49s-12.58,5.5-12.58,12.49,5.59,12.49,12.58,12.49,12.49-5.59,12.49-12.49"/>
        <path class="st16" d="M200.35,29.29c-23.58,0-42.8,19.13-42.8,42.8s19.13,42.8,42.8,42.8,42.8-19.13,42.8-42.8-19.22-42.8-42.8-42.8Z"/>
        <path class="st16" d="M202.36,127.9l-.09-1.31c1.57-.09,3.14-.17,4.72-.35l.17,1.31c-1.57.17-3.23.26-4.8.35ZM197.47,127.9c-1.66-.09-3.23-.26-4.89-.44l.17-1.31c1.57.17,3.14.35,4.72.44v1.31ZM211.97,126.68l-.26-1.22c1.57-.35,3.06-.7,4.63-1.22l.35,1.22c-1.48.52-3.06.96-4.72,1.22h0ZM187.77,126.51c-1.57-.35-3.14-.79-4.72-1.31l.44-1.22c1.48.52,3.06.87,4.63,1.31l-.35,1.22ZM221.31,123.89l-.52-1.22c1.48-.61,2.88-1.22,4.37-2.01l.61,1.14c-1.48.79-2.97,1.48-4.45,2.1h0ZM178.51,123.54c-1.48-.61-2.97-1.31-4.37-2.1l.61-1.14c1.4.79,2.88,1.4,4.28,2.1l-.52,1.14ZM230.05,119.43l-.7-1.05c1.31-.87,2.62-1.75,3.93-2.71l.79,1.05c-1.31.96-2.71,1.83-4.02,2.71h0ZM169.95,118.91c-1.4-.87-2.71-1.83-3.93-2.8l.79-1.05c1.22.96,2.53,1.92,3.84,2.8l-.7,1.05ZM237.82,113.58l-.87-.96c1.14-1.05,2.36-2.18,3.41-3.32l.96.87c-1.14,1.14-2.36,2.27-3.49,3.41h-.01ZM162.26,112.97c-1.22-1.14-2.36-2.27-3.41-3.49l.96-.87c1.05,1.14,2.18,2.36,3.32,3.41l-.87.96h0ZM244.46,106.42l-1.05-.79c.96-1.22,1.92-2.53,2.8-3.84l1.05.7c-.87,1.31-1.83,2.71-2.8,3.93ZM155.71,105.72c-.96-1.31-1.92-2.62-2.8-4.02l1.05-.7c.87,1.31,1.75,2.62,2.71,3.93,0,0-.96.79-.96.79ZM249.79,98.29l-1.14-.61c.79-1.4,1.4-2.88,2.1-4.28l1.14.44-2.1,4.45ZM150.56,97.42c-.7-1.48-1.4-2.97-2.01-4.45l1.14-.44c.61,1.48,1.22,2.88,2.01,4.37l-1.14.52ZM253.55,89.3l-1.22-.44c.52-1.48.87-3.06,1.31-4.63l1.22.26c-.35,1.66-.79,3.23-1.31,4.8h0ZM146.89,88.42c-.44-1.57-.87-3.14-1.22-4.72l1.22-.26c.35,1.57.7,3.06,1.22,4.63,0,0-1.22.35-1.22.35ZM255.73,79.77l-1.31-.17c.17-1.57.35-3.14.44-4.72l1.31.09c0,1.57-.17,3.23-.44,4.8h0ZM144.88,78.9c-.26-1.66-.35-3.23-.44-4.89l1.31-.09c.09,1.57.17,3.14.35,4.72,0,0-1.22.26-1.22.26ZM254.94,70.08c-.09-1.57-.17-3.14-.35-4.72l1.31-.17c.17,1.57.35,3.23.35,4.89h-1.31ZM145.76,69.2l-1.31-.09c.09-1.66.26-3.23.44-4.89l1.31.26c-.17,1.57-.35,3.14-.44,4.72ZM253.81,60.64c-.35-1.57-.7-3.14-1.22-4.63l1.22-.35c.44,1.57.87,3.14,1.22,4.72l-1.22.26ZM147.07,59.77l-1.22-.26c.35-1.57.79-3.14,1.31-4.72l1.22.44c-.52,1.48-.96,2.97-1.31,4.54ZM251.01,51.56c-.61-1.48-1.22-2.97-2.01-4.37l1.14-.61c.7,1.48,1.4,2.97,2.01,4.45l-1.14.52h0ZM150.04,50.69l-1.22-.44c.61-1.48,1.31-2.97,2.1-4.37l1.14.61c-.7,1.31-1.4,2.8-2.01,4.19h-.01ZM154.49,42.3l-1.05-.7c.87-1.4,1.83-2.71,2.8-3.93l1.05.79c-1.05,1.22-1.92,2.53-2.8,3.84ZM160.34,34.79l-.96-.87c1.14-1.22,2.27-2.36,3.49-3.41l.87.96c-1.22,1.05-2.36,2.18-3.41,3.32h.01ZM167.42,28.41l-.79-1.05c1.31-.96,2.62-1.92,4.02-2.8l.7,1.05c-1.4.96-2.71,1.83-3.93,2.8h0ZM225.94,23.7c-1.4-.7-2.88-1.4-4.28-2.01l.44-1.22c1.48.61,2.97,1.31,4.37,2.1l-.52,1.14h0ZM175.45,23.35l-.61-1.14c1.48-.7,2.97-1.4,4.45-2.01l.52,1.14c-1.48.61-2.97,1.31-4.37,2.01h0ZM217.12,20.03c-1.48-.52-3.06-.87-4.63-1.22l.26-1.22c1.57.35,3.14.79,4.72,1.31l-.35,1.14h0ZM184.28,19.76l-.35-1.22c1.57-.44,3.14-.87,4.72-1.22l.26,1.22c-1.57.35-3.14.79-4.63,1.22h0ZM207.86,17.84c-1.57-.17-3.14-.35-4.72-.44l.09-1.31c1.66.09,3.23.26,4.89.44l-.26,1.31ZM193.62,17.76l-.17-1.31c1.57-.17,3.23-.35,4.89-.35l.09,1.31c-1.66,0-3.23.17-4.8.35h0Z"/>
      </g>
    </g>
  </g>
</svg>